<?xml version="1.0" standalone="no"?>
<!DOCTYPE svg PUBLIC "-//W3C//DTD SVG 1.1//EN" "http://www.w3.org/Graphics/SVG/1.1/DTD/svg11.dtd">
<svg xmlns="http://www.w3.org/2000/svg">
<metadata>Copyright (C) 2016 by original authors @ fontello.com</metadata>
<defs>
<font id="nb" horiz-adv-x="1000" >
<font-face font-family="nb" font-weight="400" font-stretch="normal" units-per-em="1000" ascent="850" descent="-150" />
<missing-glyph horiz-adv-x="1000" />
<glyph glyph-name="i_accordeon-close" unicode="&#xe800;" d="M757 328h-514v44h514v-44z m194-478h-902c-13 0-25 5-34 14a47 47 0 0 0-15 35v902c0 14 5 25 14 35a47 47 0 0 0 35 14h902c14 0 25-5 35-14 9-10 14-21 14-35v-902c0-14-5-25-14-35a47 47 0 0 0-35-14z m-894 57h886v886h-886v-886z" horiz-adv-x="1000" />

<glyph glyph-name="i_accordeon-open" unicode="&#xe801;" d="M757 329h-235v-236h-43v236h-236v43h236v235h43v-235h235v-43z m195-479h-903c-14 0-25 5-35 14a46 46 0 0 0-14 34v903c0 14 5 25 14 35a47 47 0 0 0 35 14h903c13 0 24-5 34-14 9-10 14-21 14-35v-903c0-13-5-24-14-34a46 46 0 0 0-34-14z m-895 57h886v886h-886v-886z" horiz-adv-x="1000" />

<glyph glyph-name="i_angle" unicode="&#xe802;" d="M917-48l-886 898-31-30 917-928 916 928-30 30-886-898z" horiz-adv-x="1833" />

<glyph glyph-name="i_close-big" unicode="&#xe803;" d="M995-93l-442 443 442 443a13 13 0 0 1 5 11 13 13 0 0 1-5 10l-31 31a19 19 0 0 1-5 4 13 13 0 0 1-6 1 11 11 0 0 1-5-1 137 137 0 0 1-6-4l-442-442-442 442a137 137 0 0 1-6 4 11 11 0 0 1-5 1 13 13 0 0 1-6-1 19 19 0 0 1-5-4l-31-31a13 13 0 0 1-5-10c0-4 2-8 5-12l442-442-442-443a13 13 0 0 1-5-11 13 13 0 0 1 5-10l31-31c1-1 3-3 5-4a13 13 0 0 1 6-1 11 11 0 0 1 5 1 23 23 0 0 1 5 4l443 442 443-442a10 10 0 0 1 5-4 15 15 0 0 1 5-1 19 19 0 0 1 6 1 10 10 0 0 1 5 4l31 31a19 19 0 0 1 4 5 13 13 0 0 1 1 6 11 11 0 0 1-1 5 23 23 0 0 1-4 5z" horiz-adv-x="1000" />

<glyph glyph-name="i_filter_check" unicode="&#xe804;" d="M459-128l-459 458 123 124 336-336 730 732 124-123-854-855z" horiz-adv-x="1313" />

<glyph glyph-name="i_filter_reload" unicode="&#xe805;" d="M777 506l-6 20-75-58 3-9c8-30 12-60 12-91-1-31-6-61-16-90a299 299 0 0 0-106-152c-27-20-57-36-89-47a306 306 0 0 0-134-14 315 315 0 0 0-33 5l20 88-258-78 197-184 20 87c15-4 29-6 44-7 15-2 30-3 46-3 44 0 86 7 127 21a408 408 0 0 1 115 61 390 390 0 0 1 87 92 399 399 0 0 1 69 234 404 404 0 0 1-23 125z m-675-219a301 301 0 0 0-12 91c0 31 5 61 14 90 10 31 24 59 42 84 18 26 40 49 66 68 27 21 56 36 88 47a305 305 0 0 0 100 16 316 316 0 0 0 68-7l-21-89 258 79-196 184-21-87a399 399 0 0 1-44 7 445 445 0 0 1-45 3 397 397 0 0 1-242-82 398 398 0 0 1-87-92 385 385 0 0 1-54-111 418 418 0 0 1-16-123 379 379 0 0 1 24-125l6-20 75 58-3 9z" horiz-adv-x="800" />

<glyph glyph-name="i_footer_fb" unicode="&#xe806;" d="M590 519l-24-3c-17-2-25-15-25-37v-61h91l-12-92h-79v-240h-96v240h-82v92h82v70l13 61c8 40 42 60 102 58 17 0 32 0 44 0 13 0 24-1 33-1v-87h-47z m-90-669c-69 0-134 13-195 39a504 504 0 0 0-159 107 504 504 0 0 0-107 159c-26 61-39 126-39 195s13 134 39 195a504 504 0 0 0 107 159 504 504 0 0 0 159 107c61 26 126 39 195 39s134-13 195-39c60-26 113-62 159-107a504 504 0 0 0 107-159c26-61 39-126 39-195s-13-134-39-195a504 504 0 0 0-107-159 504 504 0 0 0-159-107c-61-26-126-39-195-39z m0 949c-62 0-120-12-175-36a459 459 0 0 1-142-96 453 453 0 0 1-96-142c-23-55-35-113-35-175 0-62 12-120 35-175a453 453 0 0 1 96-142 453 453 0 0 1 142-96c55-23 113-35 175-35 62 0 120 12 175 35a453 453 0 0 1 142 96 459 459 0 0 1 96 142c24 55 36 113 36 175 0 62-12 120-36 175a459 459 0 0 1-96 142 459 459 0 0 1-142 96c-55 24-113 36-175 36z" horiz-adv-x="1000" />

<glyph glyph-name="i_footer_inst" unicode="&#xe807;" d="M666 565c15 0 27-5 38-15 10-10 15-22 15-37v-332c0-15-5-27-15-37a52 52 0 0 0-38-15h-332a50 50 0 0 0-37 15 50 50 0 0 0-15 37v332c0 15 5 27 15 37a50 50 0 0 0 37 15h332z m-81-120c0-4 1-7 4-9a13 13 0 0 1 9-4h59a13 13 0 0 1 8 4 12 12 0 0 1 4 9v59a11 11 0 0 1-4 8 13 13 0 0 1-8 3h-59a13 13 0 0 1-9-3 11 11 0 0 1-4-8v-59z m-84-15c-23 0-43-8-60-24a81 81 0 0 1-24-60c0-23 8-42 24-59 17-16 37-24 60-24a82 82 0 0 1 59 24c17 17 25 36 25 59 0 24-8 44-25 60a82 82 0 0 1-59 24z m169-49h-41c2-5 3-10 4-16 1-6 1-12 1-19 0-36-13-68-39-93-26-26-57-39-94-39s-68 13-94 39c-26 25-39 57-39 93 0 7 0 13 1 19 1 6 2 11 4 16h-41v-189a13 13 0 0 1 3-9 11 11 0 0 1 9-4h314c3 0 6 1 8 4a12 12 0 0 1 4 9v189z m-170-531c-69 0-134 13-195 39a504 504 0 0 0-159 107 504 504 0 0 0-107 159c-26 61-39 126-39 195s13 134 39 195a504 504 0 0 0 107 159 504 504 0 0 0 159 107c61 26 126 39 195 39s134-13 195-39c60-26 113-62 159-107a504 504 0 0 0 107-159c26-61 39-126 39-195s-13-134-39-195a504 504 0 0 0-107-159 504 504 0 0 0-159-107c-61-26-126-39-195-39z m0 948c-62 0-120-12-175-35a453 453 0 0 1-142-96 453 453 0 0 1-96-142c-23-55-35-113-35-175 0-62 12-120 35-175a453 453 0 0 1 96-142 453 453 0 0 1 142-96c55-23 113-35 175-35 62 0 120 12 175 35a453 453 0 0 1 142 96 453 453 0 0 1 96 142c23 55 35 113 35 175 0 62-12 120-35 175a453 453 0 0 1-96 142 453 453 0 0 1-142 96c-55 23-113 35-175 35z" horiz-adv-x="1000" />

<glyph glyph-name="i_footer_mynb" unicode="&#xe808;" d="M1989 343l-61-105-336 19 34 58 363 28z m243 335l31-116-478 32 34 59 413 25z m-316 143h279l21-80-333 21 33 59z m-25-649l-48-84h-348l33 59 363 25z m611 226l-85-146h81c19 0 42 5 68 16 27 11 46 29 57 56 9 24 8 43-5 55-12 13-24 19-36 19h-80z m80 140h70c23 0 46 6 67 16a91 91 0 0 1 46 49c8 21 8 38 0 53-9 15-20 22-35 21l-68 1-80-140z m-317 25l71 122 239 16 9 15-221 15 52 90h409c63 0 114-13 153-40 38-26 49-72 30-138-2-10-8-23-16-40-9-16-21-33-38-51-16-18-37-35-63-52-26-17-58-31-95-41 16-2 38-13 66-33 28-20 39-52 32-98-6-41-23-76-49-106-27-30-57-55-92-75a447 447 0 0 0-110-44c-37-10-71-15-100-15h-484l-24 94 254 18 9 15-275 17-31 111 392 23 8 14-702 45 33 58 757 50 8 15-222 15z m-1161-475h-158l-55 431-250-431h-148l-55 437-249-437h-189l431 734h128l58-462 272 462h122l93-734z m588 534l-437-768h-191l134 234-67 534h162l39-310 168 310h192z" horiz-adv-x="3032" />

<glyph glyph-name="i_footer_nb" unicode="&#xe809;" d="M737 399l39 68 133 9 4 8-123 8 29 50h228c18 0 34-1 49-5 14-3 26-9 36-16 10-8 16-18 20-31 3-13 2-28-3-47a133 133 0 0 0-9-22c-5-9-12-18-21-28a188 188 0 0 0-35-29c-14-9-32-17-53-23 9-1 21-7 37-18 15-11 21-29 17-55a112 112 0 0 0-27-58 199 199 0 0 0-51-42c-19-11-40-19-61-24-21-6-39-8-56-8l-269-1-13 53 141 10 5 8-154 9-16 62 218 12 5 9-392 24 19 33 421 28 5 7-123 9z m176-14l39 0c13 0 25 3 37 9a50 50 0 0 1 25 27c5 12 5 21 0 30-4 8-11 12-19 12h-37l-45-78z m-45-78l-47-81h45c10 0 23 3 38 9 15 6 25 16 31 31 5 14 4 24-2 31s-14 10-20 10h-45z m-340-125l-27-46-193-1 18 33 202 14z m14 360h155l12-44-186 12 19 32z m176-79l17-64-266 17 19 33 230 14z m-135-186l-34-59-187 11 18 32 203 16z" horiz-adv-x="1513" />

<glyph glyph-name="i_footer_pin" unicode="&#xe80a;" d="M603 675a319 319 0 0 1-49 70 325 325 0 0 1-145 90 305 305 0 0 1-88 12c-30 0-59-4-88-12-28-9-54-20-78-36a342 342 0 0 1-66-54 310 310 0 0 1-50-70 344 344 0 0 1-29-74 327 327 0 0 1-10-82c0-28 3-55 10-81 7-26 16-52 29-78a890 890 0 0 1 43-82c17-29 35-58 55-90 11-20 23-39 36-60 13-20 25-42 39-64 13-23 26-47 40-72a1982 1982 0 0 0 40-79l29-59 29 59a1982 1982 0 0 0 40 79c14 25 27 49 40 72 14 22 26 44 39 64 12 21 25 40 37 60a4175 4175 0 0 1 55 90 810 810 0 0 1 43 82 540 540 0 0 1 28 78c7 26 11 53 11 81 0 28-4 55-11 82a363 363 0 0 1-29 74z m-282 105a248 248 0 0 0 144-44 272 272 0 0 0 54-51 244 244 0 0 0 39-65c6-15 11-31 14-48 4-17 5-34 5-52 0-23-3-46-9-68a431 431 0 0 0-26-69c-11-24-24-49-40-75-15-26-32-54-51-83a9148 9148 0 0 1-63-104 2845 2845 0 0 1-67-119 2068 2068 0 0 1-67 119 17890 17890 0 0 1-63 104 15384 15384 0 0 0-50 83 865 865 0 0 0-40 75 468 468 0 0 0-27 69 243 243 0 0 0-9 68c0 18 1 35 5 52 3 17 8 33 15 48a252 252 0 0 0 38 65 261 261 0 0 0 54 51 252 252 0 0 0 144 44z m0-442c49 0 91 18 125 53 35 35 52 78 52 128 0 6 0 12-1 18-1 7-2 13-4 19-7 41-27 75-60 103-32 27-70 41-112 41-42 0-80-14-112-41-32-28-52-62-61-103a208 208 0 0 1-2-19 182 182 0 0 1-1-18c0-50 17-93 51-128 35-35 76-53 125-53z m0 295c27 0 51-9 71-26a117 117 0 0 0 40-65 124 124 0 0 0 2-22c0-32-11-59-34-81-22-23-48-34-79-34-31 0-57 11-79 34-22 22-33 49-33 81a124 124 0 0 0 2 22c5 26 18 47 39 65a107 107 0 0 0 71 26z" horiz-adv-x="658" />

<glyph glyph-name="i_footer_subs" unicode="&#xe80b;" d="M501 850c-69 0-134-13-195-39-61-27-114-63-159-108-45-45-81-98-107-158-27-61-40-126-40-194s13-134 40-195c26-61 62-114 107-159 45-45 98-81 159-108 61-26 126-39 195-39s133 13 194 39 113 63 158 108c45 45 81 98 108 159 26 61 39 126 39 195s-13 133-39 194-63 113-108 158c-45 45-98 81-158 108-61 26-126 39-194 39z m0-931c-60 0-116 11-169 34a433 433 0 0 0-137 92 433 433 0 0 0-92 137c-22 53-34 109-34 169 0 59 12 114 34 167a433 433 0 0 0 92 137 433 433 0 0 0 137 92c53 23 109 34 169 34 48 0 94-8 138-23a441 441 0 0 0 120-64 435 435 0 0 0 94-96 407 407 0 0 0 59-123c4-13 7-27 9-42 1-14 2-28 2-41 0-79-16-137-48-173-32-37-67-55-106-55-30 0-53 8-69 24-17 15-25 37-25 65 0 6 1 16 2 27 1 12 3 25 6 40l44 251-73 10-15-76c-13 23-32 44-58 63-26 19-60 28-103 28-31 0-62-7-92-21a277 277 0 0 1-82-57c-24-25-43-53-58-87s-23-70-23-110c0-30 6-57 16-82a192 192 0 0 1 43-63 185 185 0 0 1 62-41 207 207 0 0 1 77-14c41 0 77 9 106 28a321 321 0 0 1 76 65c10-28 29-50 55-67 26-17 59-26 99-26 26 0 51 6 76 16 25 11 47 28 67 51a431 431 0 0 0-65-109 431 431 0 0 0-206-140 423 423 0 0 0-128-20z m118 469a191 191 0 0 0-17-79 221 221 0 0 0-46-67 191 191 0 0 0-54-38c-21-10-43-14-65-14-39 0-71 12-96 36-25 24-38 58-38 101 0 29 6 57 17 82a205 205 0 0 0 43 64 183 183 0 0 0 57 41 154 154 0 0 0 64 14c38 0 70-13 96-40 26-27 39-60 39-100z" horiz-adv-x="1000" />

<glyph glyph-name="i_footer_yt" unicode="&#xe80c;" d="M508 388c25 0 50 0 75-1l74-2c18 0 33-6 46-19 12-13 19-28 19-45l2-42a914 914 0 0 0 0-84l-2-42c0-18-7-33-19-45-13-12-28-19-46-19-26-1-52-2-78-3-26 0-52 0-79 0-27 0-53 0-79 0a2942 2942 0 0 0-77 3c-18 0-34 6-46 19a61 61 0 0 0-19 45c-1 14-2 28-3 42 0 14 0 28 0 42 0 14 0 28 0 42 1 14 2 28 3 42 0 17 7 32 19 45 12 13 28 19 46 19l73 2a2859 2859 0 0 0 75 1h16z m-135-76h31v29h-93v-29h32v-169h30v169z m109-23h-27v-111a21 21 0 0 0-4-5 26 26 0 0 0-5-3 15 15 0 0 0-4-3 9 9 0 0 0-3-1c-2 0-3 1-3 1l-2 2a6 6 0 0 0-2 3 21 21 0 0 0 0 5v113h-28v-124c0-3 1-7 2-11 1-3 2-6 3-8 2-2 3-4 6-5 3-1 6-2 9-2a24 24 0 0 1 7 2c3 1 6 2 9 3a134 134 0 0 1 15 14v-16h27v146z m125-105c0-7 1-13 3-19a33 33 0 0 1 8-14c3-4 8-7 12-9 5-2 11-3 17-3 7 0 13 1 18 3a27 27 0 0 1 12 8 33 33 0 0 1 8 14c2 6 3 12 3 20v11h-29v-10c0-5 0-8 0-11a10 10 0 0 0-3-6 6 6 0 0 0-3-3 14 14 0 0 0-5-1 14 14 0 0 0-6 1 15 15 0 0 0-4 3 36 36 0 0 0-2 7 81 81 0 0 0 0 10v27h52v37c0 8-1 14-3 19a40 40 0 0 1-7 14 27 27 0 0 1-12 8 54 54 0 0 1-18 2c-5 0-11-1-16-2a39 39 0 0 1-22-23 50 50 0 0 1-3-18v-65z m-98-41h27v11c2-2 4-4 6-6 2-1 4-3 6-4 2-1 4-2 6-2 3-1 5-1 8-1 4 0 8 1 11 2a18 18 0 0 1 7 6 21 21 0 0 1 5 10c1 4 2 9 2 14v81c0 6-1 11-2 16a49 49 0 0 1-5 12 22 22 0 0 1-9 7 29 29 0 0 1-10 2c-2 0-4-1-7-1a15 15 0 0 1-6-2 69 69 0 0 1-6-5 38 38 0 0 1-6-6v64h-27v-198z m150 92h-23v15c0 3 0 5 0 8a9 9 0 0 0 3 5 6 6 0 0 0 3 3 14 14 0 0 0 5 1 14 14 0 0 0 6-1c2-1 3-2 3-3 2-1 2-3 3-5 0-3 0-5 0-8v-15z m-110-71a13 13 0 0 0-3 0 6 6 0 0 0-3 1 24 24 0 0 0-7 5v92a16 16 0 0 0 3 2c1 1 2 1 3 2a6 6 0 0 0 2 2 11 11 0 0 0 8-1c2-1 3-2 4-3 1-1 2-3 2-5 0-2 1-4 1-7v-75c0-2-1-5-1-6a17 17 0 0 0-1-5 11 11 0 0 0-8-2z m-154 324l-37 120h32l19-79h2l19 79h31l-35-116v-82h-31v78z m65 35a37 37 0 0 0 11 26 49 49 0 0 0 13 8 43 43 0 0 0 16 3c6 0 11-1 16-3 4-2 8-4 12-8 4-4 6-8 8-12 2-5 3-10 3-15v-76c0-6-1-11-3-16a49 49 0 0 0-8-14c-3-3-7-5-12-7a46 46 0 0 0-17-3 43 43 0 0 0-16 3 36 36 0 0 0-12 7 34 34 0 0 0-9 14 54 54 0 0 0-2 17v76z m28-79c0-2 1-4 1-6 0-1 1-3 2-4a11 11 0 0 1 8-3c2 0 4 0 5 1a15 15 0 0 1 4 3 5 5 0 0 1 2 3 27 27 0 0 1 1 6v80a16 16 0 0 1-1 4 9 9 0 0 1-2 4l-4 2a11 11 0 0 1-5 1 12 12 0 0 1-4-1 9 9 0 0 1-6-6 16 16 0 0 1-1-4v-80z m78-30a55 55 0 0 0-3 8 37 37 0 0 0-1 11v123h27v-112c0-2 0-4 0-5 1-1 1-2 2-3 1-1 1-1 2-1a11 11 0 0 1 7 0 17 17 0 0 1 5 2l3 4 4 4v111h28v-146h-28v15a161 161 0 0 0-7-7 37 37 0 0 0-8-5 22 22 0 0 0-8-4 32 32 0 0 0-8-1 21 21 0 0 0-8 1 20 20 0 0 0-7 5z m-66-564c-69 0-134 13-194 40a510 510 0 0 0-159 107 510 510 0 0 0-107 159c-27 60-40 125-40 194 0 69 13 134 40 194a510 510 0 0 0 107 159 510 510 0 0 0 159 107c60 27 125 40 194 40 69 0 134-13 194-40a510 510 0 0 0 159-107 510 510 0 0 0 107-159c27-60 40-125 40-194 0-69-13-134-40-194a510 510 0 0 0-107-159 510 510 0 0 0-159-107c-60-27-125-40-194-40z m0 948c-62 0-120-11-174-35a453 453 0 0 1-143-96 453 453 0 0 1-96-143c-23-54-35-112-35-174s12-120 35-174a453 453 0 0 1 96-143 453 453 0 0 1 143-96c54-24 112-35 174-35s120 11 174 35a453 453 0 0 1 143 96 453 453 0 0 1 96 143c24 54 35 112 35 174s-11 120-35 174a453 453 0 0 1-96 143 453 453 0 0 1-143 96c-54 24-112 35-174 35z" horiz-adv-x="1000" />

<glyph glyph-name="i_footer_tw" unicode="&#xe80d;" d="M759 507a229 229 0 0 0-24-29 240 240 0 0 0-29-26v-13a310 310 0 0 0-20-107 304 304 0 0 0-57-97c-26-29-57-53-95-71-38-18-81-28-130-28-30 0-59 5-86 13a313 313 0 0 0-77 35c4 0 8-1 13-1a206 206 0 0 1 84 12 219 219 0 0 1 61 33c-24 0-44 7-63 21a104 104 0 0 0-37 53 101 101 0 0 1 48 2 107 107 0 0 0-61 36c-16 19-24 42-24 68v1c7-4 15-7 23-9 8-2 16-4 25-4a107 107 0 0 0-34 38 105 105 0 0 0-13 50c0 10 1 20 4 28a113 113 0 0 0 11 25 306 306 0 0 1 95-77 289 289 0 0 1 124-33 50 50 0 0 0-3 12 154 154 0 0 0 0 12c0 30 10 54 30 75a102 102 0 0 0 75 31c16 0 30-3 44-9 13-6 25-14 34-24 12 2 24 6 35 10 12 4 23 9 33 15a106 106 0 0 0-47-59 213 213 0 0 1 31 7c11 3 20 6 30 10z m-259-657c-69 0-134 13-194 39a502 502 0 0 0-160 107 502 502 0 0 0-107 160 488 488 0 0 0-39 194c0 69 13 133 39 194a504 504 0 0 0 107 159 509 509 0 0 0 160 107 483 483 0 0 0 194 40c69 0 133-13 194-40a511 511 0 0 0 159-107 511 511 0 0 0 107-159c27-61 40-125 40-194 0-69-13-134-40-194a509 509 0 0 0-107-160 504 504 0 0 0-159-107c-61-26-125-39-194-39z m0 948c-62 0-121-11-175-35a448 448 0 0 1-142-96 458 458 0 0 1-96-143c-23-54-35-113-35-174 0-62 12-121 35-175a452 452 0 0 1 96-142 452 452 0 0 1 142-96c54-24 113-35 175-35 61 0 120 11 174 35a458 458 0 0 1 143 96 448 448 0 0 1 96 142c23 54 35 113 35 175 0 61-12 120-35 174a454 454 0 0 1-96 143 454 454 0 0 1-143 96c-54 24-113 35-174 35z" horiz-adv-x="1000" />

<glyph glyph-name="i_header_cart" unicode="&#xe80e;" d="M418 196l-85 187h-61l-78-296h64l51 195 89-195h56l78 296h-64l-50-187z m140 457a396 396 0 0 1-66 135c-31 41-74 62-129 62-55 0-98-21-129-62a396 396 0 0 1-66-135h-168v-803h724v803h-166z m-195 151c40-2 72-19 94-51a352 352 0 0 0 48-100h-284c10 35 27 68 49 100 21 32 53 49 93 51z m303-895h-608v685h97a319 319 0 0 1-3-22l-2-20a52 52 0 0 1-9-13 37 37 0 0 1-4-17c0-11 4-21 11-28 8-8 17-12 27-12 11 0 21 4 29 12 7 7 11 17 11 28a39 39 0 0 1-3 16 34 34 0 0 1-9 12 3709 3709 0 0 0 5 44h310a9358 9358 0 0 0 5-45 41 41 0 0 1-8-12 37 37 0 0 1-3-15c0-11 4-21 11-28 8-8 18-12 29-12 11 0 20 4 28 12a39 39 0 0 1 7 45 48 48 0 0 1-11 14c-1 7-1 13-2 20a251 251 0 0 1-3 21h95v-685z" horiz-adv-x="724" />

<glyph glyph-name="i_header_login" unicode="&#xe80f;" d="M481 39a359 359 0 0 0-76 8 343 343 0 0 0-71 24 350 350 0 0 0-64 38 343 343 0 0 0-54 50 20 20 0 0 0-5 10 22 22 0 0 0 0 12 20 20 0 0 0 5 10 31 31 0 0 0 9 7c7 3 15 6 23 9 7 3 15 6 24 9 12 5 25 10 37 15 12 4 23 9 31 14 10 5 19 9 27 11 7 2 14 4 19 5l7 3 1 3c1 1 2 4 3 8 3 9 3 16 1 19-2 4-6 9-12 16l-3 2a66 66 0 0 0-19 29 167 167 0 0 0-8 42 76 76 0 0 0-12 18 51 51 0 0 0-5 22c0 9 2 17 4 23a38 38 0 0 0 8 13c-4 26-5 43-3 51 2 9 5 15 9 20l3 4a57 57 0 0 0 9 13c5 5 12 9 20 10a65 65 0 0 1 7 5c2 2 4 4 6 6 7 6 14 12 21 17 7 5 15 8 24 8 4 0 8 0 11 1 4 0 7 0 10 1a34 34 0 0 0 9 8 24 24 0 0 0 12 3c6 0 11-1 16-4 5-4 11-8 17-13l7-5h2c2 0 5 0 7 1 3 0 5 1 5 1a22 22 0 0 0 11 1c3 0 7-1 10-3 27-17 43-30 48-40 5-10 8-17 8-21l1-4c2-3 5-9 7-16 3-7 2-16-3-25 0 0 0-1-1-3a49 49 0 0 1-2-6v-5c5-4 9-8 12-15 4-6 5-15 5-26 0-6-1-13-3-19a74 74 0 0 0-11-18c-1-17-4-31-9-43a85 85 0 0 0-25-35 52 52 0 0 1-4-4 15 15 0 0 1-6-4 28 28 0 0 0-2-3c0 0 0-2-1-6 0-3 1-9 4-18 0-3 1-5 1-6 1-2 1-3 2-4l6-2c5-1 12-3 19-5 8-2 17-6 27-11 9-5 20-10 32-14 12-5 25-10 37-15 6-2 12-4 18-6 6-2 11-5 16-7 4-1 7-4 10-7a34 34 0 0 0 5-10c1-4 1-8 0-12a22 22 0 0 0-4-10 345 345 0 0 0-120-92 357 357 0 0 0-150-33v0z m-203 127a289 289 0 0 1 93-57 307 307 0 0 1 110-20 311 311 0 0 1 113 21 282 282 0 0 1 94 60 1446 1446 0 0 0-39 15 539 539 0 0 0-34 16 155 155 0 0 1-20 8 88 88 0 0 1-15 4 97 97 0 0 0-29 13c-8 5-14 17-17 35-6 23-7 40-2 51 4 12 12 22 23 31l7 5c3 3 5 8 8 14 4 7 6 19 6 34a23 23 0 0 0 7 17l4 3a30 30 0 0 0-9 9 20 20 0 0 0-4 11 150 150 0 0 0-1 17c0 5 0 10-1 14v4c0 1 1 3 1 4a13 13 0 0 1 0 3 75 75 0 0 0 3 9c1 3 2 5 3 8a50 50 0 0 0-9 22 53 53 0 0 1-9 8 796 796 0 0 1-14 11 73 73 0 0 0-16-2c-6 0-11 1-16 2a42 42 0 0 0-12 6l-12 9c-4-2-10-4-17-5-7-1-15-2-24-3a25 25 0 0 1-8-5 205 205 0 0 1-7-7 252 252 0 0 0-16-14c-5-3-11-6-16-8l-3-5a22 22 0 0 0-4-5c0-4 1-11 2-20 1-9 3-21 7-36a23 23 0 0 0-2-15 22 22 0 0 0-11-12l5-4c3-3 4-6 6-8a24 24 0 0 0 2-10c0-16 2-27 4-33 3-7 5-11 7-13l3-3c8-6 16-16 24-29 8-12 8-31 1-56-5-17-11-29-19-34a83 83 0 0 0-27-12c-4-1-9-3-15-5a155 155 0 0 1-20-8c-10-5-21-10-34-16-13-5-26-10-39-15l-12-4z m204-313c-66 0-129 13-187 38a484 484 0 0 0-154 103 486 486 0 0 0-103 154 473 473 0 0 0-38 188c0 67 13 130 38 188 25 59 59 110 103 154a491 491 0 0 0 154 104 465 465 0 0 0 187 38c66 0 129-13 187-38a492 492 0 0 0 154-104 494 494 0 0 0 103-154c26-58 39-121 39-188 0-66-13-129-39-188a492 492 0 0 0-103-154 486 486 0 0 0-154-103c-58-25-121-38-187-38z m0 917c-59 0-115-12-168-34a431 431 0 0 1-138-93 443 443 0 0 1-92-138c-23-53-34-109-34-169 0-59 11-115 34-168a436 436 0 0 1 92-138 435 435 0 0 1 138-93c53-23 109-34 168-34 60 0 116 11 168 34a442 442 0 0 1 138 93 432 432 0 0 1 93 138c22 53 34 109 34 168 0 60-12 116-34 169a439 439 0 0 1-93 138 438 438 0 0 1-138 93c-52 22-108 34-168 34z" horiz-adv-x="966" />

<glyph glyph-name="i_header_menu" unicode="&#xe810;" d="M0 451h1923v-154h-1923v154z m0 373h1923v-154h-1923v154z m0-747h1923v-154h-1923v154z" horiz-adv-x="1923" />

<glyph glyph-name="i_header_pin" unicode="&#xe811;" d="M607 676a321 321 0 0 1-50 71 326 326 0 0 1-145 90 307 307 0 0 1-89 13c-30 0-60-4-88-13a317 317 0 0 1-79-35c-25-16-47-34-67-55-20-21-37-45-50-71a346 346 0 0 1-29-74 330 330 0 0 1-10-83c0-28 3-55 10-81 7-26 17-52 29-79 12-27 27-54 44-83 16-28 35-58 55-90 11-20 24-40 36-60a2710 2710 0 0 0 79-137c14-25 27-51 41-79l29-60 29 60c14 28 27 54 41 79a2710 2710 0 0 0 79 137c13 20 25 40 37 60 20 32 39 62 56 90 16 29 31 56 43 83a544 544 0 0 1 28 79c8 26 11 53 11 81 0 29-3 56-11 83a365 365 0 0 1-29 74z m-284 107a250 250 0 0 0 145-45c20-15 39-31 55-51 16-20 29-41 39-65 6-16 11-32 14-49 4-17 5-35 5-53 0-23-3-45-9-68a434 434 0 0 0-26-70 871 871 0 0 0-41-75c-15-26-32-54-51-84-20-32-41-67-63-104a2864 2864 0 0 1-68-121 2082 2082 0 0 1-67 121c-23 37-44 72-64 104-18 30-35 58-50 84a871 871 0 0 0-41 75 472 472 0 0 0-26 70 244 244 0 0 0-10 68c0 18 2 36 5 53 4 17 9 33 15 49 10 24 23 45 39 65 16 20 34 36 55 51a254 254 0 0 0 144 45z m0-446c49 0 91 18 126 54a176 176 0 0 1 51 147 478 478 0 0 1-3 19 174 174 0 0 1-61 103 170 170 0 0 1-113 42c-43 0-80-14-112-42a180 180 0 0 1-62-103 183 183 0 0 1-3-38c0-50 17-93 51-128 35-36 77-54 126-54z m0 297c27 0 51-9 72-26 21-18 34-40 40-66a153 153 0 0 0 2-22c0-32-12-59-34-82a109 109 0 0 0-80-33c-31 0-57 11-79 33a112 112 0 0 0-33 82 125 125 0 0 0 2 22c5 26 18 48 38 66a108 108 0 0 0 72 26z" horiz-adv-x="647" />

<glyph glyph-name="i_header_search" unicode="&#xe812;" d="M928 155c15 33 26 64 35 93 9 29 15 57 19 83 3 27 4 53 3 79a422 422 0 0 1-13 77 472 472 0 0 1-66 147 487 487 0 0 1-109 115 503 503 0 0 1-141 74 494 494 0 0 1-223 23c-20-2-40-6-60-11-32-7-63-18-92-32-29-13-56-30-82-48a478 478 0 0 1-129-139c-16-28-30-57-41-87a455 455 0 0 1-28-184c1-32 6-63 14-94a465 465 0 0 1 67-147 500 500 0 0 1 108-115 496 496 0 0 1 141-75c52-18 106-27 162-27 20 0 41 1 61 4a447 447 0 0 1 60 12c26 6 52 15 77 25a452 452 0 0 1 72 38c23 14 44 31 64 49 20 18 38 37 55 58l402-223 49 81-405 224z m-20 214c0-56-11-108-33-157a409 409 0 0 0-89-129 422 422 0 0 0-131-87 410 410 0 0 0-161-32 413 413 0 0 0-162 32 414 414 0 0 0-132 87 420 420 0 0 0-89 129 379 379 0 0 0-33 157c0 56 11 108 33 157a414 414 0 0 0 89 129 425 425 0 0 0 132 87 408 408 0 0 0 162 32c57 0 111-11 161-32a433 433 0 0 0 131-87 403 403 0 0 0 89-129 386 386 0 0 0 33-157z" horiz-adv-x="1333" />

<glyph glyph-name="s-2" unicode="&#xe813;" d="M0-146l680 484-680 484v-968z" horiz-adv-x="700" />

<glyph glyph-name="s-1" unicode="&#xe814;" d="M625 366l-625-460v919l625-459z m-533-279l378 279-378 278v-557z" horiz-adv-x="625" />

<glyph glyph-name="logo_nb" unicode="&#xe815;" d="M1014 511l93 160 314 21 11 20-291 20 68 118h539c41 0 80-4 114-12 35-8 64-21 87-40 22-18 38-42 46-72 8-29 6-66-6-110-3-13-11-30-22-52-11-22-27-44-49-68-22-23-50-46-83-68-34-22-76-40-125-53 21-3 50-17 87-43 36-26 50-69 41-129-8-54-29-100-64-139a470 470 0 0 0-121-98 591 591 0 0 0-144-58c-50-13-93-19-132-19l-636-1-32 124 334 23 11 19-362 23-39 145 515 30 11 20-925 58 45 77 995 65 11 19-291 20z m416-33l92 1c31 0 60 7 89 21a118 118 0 0 1 59 64c11 27 11 50 0 69-11 19-26 29-46 29h-88l-106-184z m-105-183l-111-192h105c25 0 55 7 90 21 36 13 60 38 73 73 13 32 11 56-5 73-16 16-31 25-47 25h-105z m-804-297l-64-109-457-1 44 77 477 33z m33 852h367l28-104-439 27 44 77z m416-187l40-152-628 41 44 77 544 34z m-320-441l-80-138-442 25 44 77 478 36z" horiz-adv-x="2000" />

<glyph glyph-name="i_soc_vk" unicode="&#xe816;" d="M500-150c276 0 500 224 500 500s-224 500-500 500-500-224-500-500 224-500 500-500z m44 446c-14 8-34 8-49 8h-52v-107h47c18 0 41-2 56 9 14 10 22 28 22 46 0 16-10 36-24 44z m-20 91c12 9 18 25 18 39 0 16-7 31-21 39-14 8-39 6-56 6h-22v-94h30c17 0 37-1 51 10z m-3-270h-179v431h195c57 0 109-36 109-99 0-49-27-83-62-93v-2c51-10 88-38 88-106 0-63-42-131-151-131z" horiz-adv-x="1000" />

<glyph glyph-name="i_soc_tw" unicode="&#xe817;" d="M500-150c276 0 500 224 500 500s-224 500-500 500-500-224-500-500 224-500 500-500z m313 654a250 250 0 0 0-26-32c-10-10-20-19-31-27v-15c0-39-8-77-22-116a331 331 0 0 0-63-106c-27-32-62-58-103-77-41-20-88-30-141-30-33 0-64 4-94 14a340 340 0 0 0-83 38c4-1 9-1 13-2a225 225 0 0 1 92 13 238 238 0 0 1 66 37 109 109 0 0 0-68 23 113 113 0 0 0-40 57 110 110 0 0 1 52 2 117 117 0 0 0-66 40 111 111 0 0 0-27 74v1c8-5 17-8 25-10 9-3 18-4 28-5a117 117 0 0 0-38 41 114 114 0 0 0-14 56c0 10 2 20 5 30 3 10 6 19 11 27a333 333 0 0 1 105-84 314 314 0 0 1 134-36 55 55 0 0 0-3 13 167 167 0 0 0 0 13c0 32 11 60 33 82a111 111 0 0 0 82 33c17 0 32-3 47-9 14-7 27-15 38-27a288 288 0 0 1 37 11c13 5 25 10 36 17a115 115 0 0 0-51-64c11 1 23 4 34 7 11 3 22 7 32 11z" horiz-adv-x="1000" />

<glyph glyph-name="i_soc_ok" unicode="&#xe818;" d="M499 422a77 77 0 0 1 77 78 77 77 0 0 1-77 76 77 77 0 0 1-77-77 77 77 0 0 1 77-77z m0 428c-276 0-499-223-499-499s223-499 499-499c275 0 499 224 499 499s-224 499-499 499z m0-193c87-1 157-72 157-160-1-86-72-155-158-155-86 0-157 72-156 158a158 158 0 0 0 157 157z m177-377a189 189 0 0 0-68-44c-25-9-51-14-78-17 4-4 6-7 9-9 35-36 71-72 107-108 12-12 15-27 8-42-7-15-24-26-40-25-10 1-18 6-25 13-27 27-55 54-81 82-8 8-11 6-18-1a5391 5391 0 0 0-83-83c-12-12-27-14-42-7-15 7-25 23-24 39 1 11 6 19 13 26 36 35 71 71 106 106 3 3 5 5 8 9-48 5-91 17-129 46-4 3-9 7-13 11-17 16-18 34-5 52 11 16 29 20 48 11 4-2 8-4 11-6 69-48 165-49 234-2 7 5 15 9 23 11a36 36 0 0 0 41-16c10-17 10-33-2-46z" horiz-adv-x="1000" />

<glyph glyph-name="i_soc_ma" unicode="&#xe819;" d="M488 473h-3c-75 0-117-59-117-127 0-76 50-123 117-123 74 0 123 54 127 118l-1 15c-3 73-58 117-123 117m254-332c-50-39-125-1-124 56l-1 19a186 186 0 0 0-131-55c-100 0-188 88-188 188 0 101 88 190 188 190 50 0 98-23 133-58v0c0 17 11 30 27 30h4c24 0 29-24 29-31l0-261c-1-17 18-26 29-15 42 43 92 222-26 325-111 96-258 80-337 26-84-57-137-185-85-305 57-130 219-169 315-131 49 20 71-46 21-67-77-33-290-30-390 143-67 116-63 321 115 427 137 81 316 59 425-55 113-118 107-340-4-426m-245 709c-274 0-497-222-497-497 0-274 223-497 497-497 275 0 497 223 497 497 0 275-222 497-497 497" horiz-adv-x="1000" />

<glyph glyph-name="i_soc_go" unicode="&#xe81a;" d="M500 850c-276 0-500-224-500-500s224-500 500-500 500 224 500 500-224 500-500 500z m107-523a221 221 0 0 0-220-220 221 221 0 0 0-220 220 221 221 0 0 0 220 220c49 0 95-16 134-45l-51-67a135 135 0 0 1-83 28 137 137 0 0 1-136-136 137 137 0 0 1 136-136 137 137 0 0 1 130 94h-130v84h220v-42z m233-32h-63v-63h-55v63h-63v55h63v63h55v-63h63v-55z" horiz-adv-x="1000" />

<glyph glyph-name="i_soc_fb" unicode="&#xe81b;" d="M500-150c276 0 500 224 500 500s-224 500-500 500-500-224-500-500 224-500 500-500z m87 692l-26-4c-18-3-26-16-26-40v-66h96l-12-99h-84v-259h-102v259h-88v99h88v76l13 65c9 44 45 65 108 64 18 0 34-1 48-1 13 0 25 0 35 0v-94h-50z" horiz-adv-x="1000" />

<glyph glyph-name="i_item_tablesize" unicode="&#xe81c;" d="M0 850h149v-1000h-149v1000z m311-376h149v-624h-149v624z m312 169h149v-793h-149v793z m313-298h147v-495h-147v495z" horiz-adv-x="1083" />

<glyph glyph-name="i_item_size" unicode="&#xe81d;" d="M612-149a125 125 0 0 0-17 2l-17 9c-84 39-68 95-48 167 5 17 10 34 13 52 17 113 23 234-26 301-39 54-133 53-138 125-3 35 6 63 26 84 48 50 148 52 204 48 46-3 50-8 71-14 216-57 89-161 70-428-8-120 83-360-138-346z m-241 999c-7 0-14-1-20-4-21-7-36-25-43-51-6-23-5-50 4-76 16-46 52-77 88-77 7 0 14 1 20 4 20 7 35 24 43 49 7 24 5 51-4 78-16 46-51 77-88 77z m147-35c-25-6-39-37-32-70 7-29 28-50 50-50a34 34 0 0 1 8 1 40 40 0 0 1 24 18c9 14 11 33 7 52-7 32-31 54-57 49z m115-14c-22 0-40-22-42-50 0-14 3-27 9-37 7-11 17-17 29-18h0c21 0 39 22 41 50a62 62 0 0 1-9 37 36 36 0 0 1-28 18z m123-63c-4 12-13 20-24 23-21 6-44-13-51-40-4-16-2-32 5-44a35 35 0 0 1 21-17 30 30 0 0 1 7-1c19 0 38 18 44 41a63 63 0 0 1-2 38z m67-57c-4 9-11 16-19 18l-7 1c-16 0-31-14-35-33-3-11-3-22 1-31a30 30 0 0 1 20-19l6-1c16 0 31 14 35 34a51 51 0 0 1-1 31z m-736 169h43v-1000h-43v1000z m-87 0h87v-43h-87v43z m130 0h87v-43h-87v43z m-130-957h87v-43h-87v43z m130 0h87v-43h-87v43z" horiz-adv-x="826" />

<glyph glyph-name="i_arr-left" unicode="&#xe81e;" d="M559-63l-408 415 415 422-75 76-491-499 483-491 76 77z m714 471l-1202 0 0-109 1202 0 0 109z" horiz-adv-x="1273" />

<glyph glyph-name="i_arr-right" unicode="&#xe81f;" d="M721-72l412 419-419 426 76 77 496-504-488-496-77 78z m-721 476l1214 0 0-111-1214 0 0 111z" horiz-adv-x="1286" />

<glyph glyph-name="i_alert" unicode="&#xe820;" d="M546 254l-91 0-20 367 131 0-20-367z m20-129c0-18-7-34-20-47-13-13-28-20-46-20-18 0-34 7-47 20-13 13-19 29-19 47 0 18 6 33 19 46 13 13 29 20 47 20 18 0 33-7 46-20 13-13 20-28 20-46l0 0z m-66-275c-69 0-134 13-195 39-60 26-113 62-159 107-45 46-81 99-107 159-26 61-39 126-39 195 0 69 13 133 39 194 26 60 62 113 107 159 46 45 99 81 159 107 61 27 126 40 195 40 69 0 133-13 194-40 60-26 113-62 159-107 45-46 81-99 107-159 27-61 40-125 40-194 0-69-13-134-40-195-26-60-62-113-107-159-46-45-99-81-159-107-61-26-125-39-194-39l0 0z m0 948c-62 0-120-12-175-35-54-24-102-56-142-96-40-41-72-89-96-143-23-55-35-113-35-174 0-62 12-120 35-175 24-54 56-102 96-142 40-41 88-72 142-96 55-23 113-35 175-35 61 0 119 12 174 35 54 24 102 55 143 96 40 40 72 88 96 142 23 55 35 113 35 175 0 61-12 119-35 174-24 54-56 102-96 143-41 40-89 72-143 96-55 23-113 35-174 35l0 0z" horiz-adv-x="1000" />

<glyph glyph-name="i_eye" unicode="&#xe821;" d="M792 850c-346 0-645-203-792-500 147-297 446-500 792-500 345 0 644 203 791 500-147 297-446 500-791 500l0 0z m390-265c93-60 172-140 231-235-59-95-138-175-231-235-117-75-252-115-390-115-139 0-274 40-391 115-93 60-171 140-231 235 60 95 138 175 231 235 6 4 13 8 19 11-16-42-24-88-24-137 0-220 177-400 396-400 218 0 396 180 396 400 0 49-9 95-24 137 6-3 12-7 18-11l0 0z m-390-76c0-82-67-150-149-150-82 0-148 68-148 150 0 83 66 150 148 150 82 0 149-67 149-150l0 0z" horiz-adv-x="1583" />

<glyph glyph-name="i_fb" unicode="&#xe822;" d="M414 689c0 0-15-2-44-6-30-4-45-27-45-67l0-112 166 0-21-168-145 0 0-438-175 0 0 438-150 0 0 168 150 0 0 128c0 0 8 37 23 111 16 74 78 109 186 107 31 0 58 0 81-1 23-1 43-1 60-1l0-159-86 0 0 0z" horiz-adv-x="500" />

<glyph glyph-name="i_field_question" unicode="&#xe823;" d="M421 258l0 27c0 12 1 23 4 34 2 10 6 20 10 29 6 9 13 18 22 28 10 9 21 18 35 29 13 9 24 18 33 25 9 8 15 15 19 21 5 6 8 12 10 19 2 6 3 13 3 20 0 8-2 15-4 21-3 7-8 12-14 17-6 3-14 7-22 9-8 2-18 3-29 3-19 0-39-3-60-9-21-6-44-16-68-28l-41 82c28 16 57 28 86 36 30 7 61 11 92 11 26 0 49-3 69-9 21-6 39-15 54-28 15-12 26-27 34-43 8-16 12-35 12-56 0-14-2-27-5-39-3-12-8-23-14-32-6-10-16-21-27-32-12-12-27-24-44-36-13-9-23-17-30-24-8-6-13-12-17-16-3-5-5-10-7-16-2-7-2-14-2-22l0-22-99 1z m116-130c0-18-6-33-19-46-13-13-28-19-46-19-18 0-33 6-46 19-14 13-20 28-20 46 0 18 6 33 20 46 13 13 28 19 46 19 18 0 33-6 46-19 13-13 19-28 19-46l0 0z m-37-278c-69 0-133 13-194 39-61 26-114 62-159 108-46 45-82 98-108 158-26 61-39 126-39 195 0 69 13 133 39 194 26 61 62 114 108 159 45 46 98 82 159 108 61 26 125 39 194 39 69 0 133-13 194-39 61-26 114-62 159-108 46-45 82-98 108-159 26-61 39-125 39-194 0-69-13-134-39-195-26-60-62-113-108-158-45-46-98-82-159-108-61-26-125-39-194-39l0 0z m0 948c-62 0-120-12-174-35-55-24-102-56-143-96-40-41-72-88-96-142-24-55-36-113-36-175 0-62 12-120 36-174 24-55 56-102 96-143 41-41 88-73 143-97 54-23 112-35 174-35 62 0 120 12 175 35 54 24 101 56 142 97 40 41 72 88 96 143 24 54 36 112 36 174 0 62-12 120-36 175-24 54-56 101-96 142-41 40-88 72-142 96-55 23-113 35-175 35l0 0z" horiz-adv-x="1000" />

<glyph glyph-name="i_plus" unicode="&#xe824;" d="M1000 308l-458 0 0-458-84 0 0 458-458 0 0 84 458 0 0 458 84 0 0-458 458 0 0-84z" horiz-adv-x="1000" />

<glyph glyph-name="i_tw" unicode="&#xe825;" d="M1200 734c-17-24-35-47-56-68-20-21-42-41-66-59l0-31c0-82-16-165-46-248-30-83-75-158-134-225-59-68-132-123-220-165-87-42-188-63-301-63-70 0-136 9-200 29-64 20-123 47-177 82 9-2 19-3 28-4 10 0 20-1 31-1 57 0 112 10 164 29 53 18 100 45 142 78-54 0-103 16-145 49-42 32-71 73-86 121 7-2 15-3 23-3 7-1 15-2 25-2 10 0 21 1 31 3 11 1 21 4 32 7-56 12-103 40-141 85-37 44-56 97-56 157l0 3c16-10 34-17 53-22 19-5 38-9 58-10-33 22-60 52-80 88-19 37-29 76-29 118 0 23 3 44 9 65 6 20 14 40 25 58 60-74 135-135 222-181 88-46 183-71 286-76-3 9-5 18-6 28 0 9-1 18-1 29 0 68 24 126 72 174 47 47 105 71 173 71 37 0 70-7 101-20 31-14 58-33 81-57 27 6 54 14 80 24 27 10 52 21 76 35-9-29-23-55-42-78-19-24-41-43-67-58 25 3 49 8 73 15 24 6 47 14 68 23l0 0z" horiz-adv-x="1200" />

<glyph glyph-name="i_vk" unicode="&#xe826;" d="M449 290c-32 18-75 18-110 18l-115 0 0-238 106 0c39 0 89-3 123 21 31 21 48 62 48 101 0 36-21 80-52 98l0 0z m-44 203c26 19 39 54 39 86 0 35-16 69-46 87-31 18-88 14-124 14l-50 0 0-209 66 0c38 0 83-3 115 22l0 0z m-8-600l-397 0 0 957 433 0c126 0 242-80 242-221 0-109-61-183-139-206l0-3c115-24 197-86 197-237 0-139-94-290-336-290l0 0z" horiz-adv-x="733" />

<glyph glyph-name="s-3" unicode="&#xe827;" d="M0 350l667 500 0-1000-667 500z m569 303l-404-303 404-302 0 605z" horiz-adv-x="667" />
</font>
</defs>
</svg>
