<svg xmlns="http://www.w3.org/2000/svg" xmlns:xlink="http://www.w3.org/1999/xlink" width="160" height="3094" viewBox="0 0 160 3094"><svg width="65" height="54" viewBox="-20 -20 65 54" id="flag-rus" y="0"><title>Flag_of_Russia</title><g fill="none" fill-rule="evenodd"><path fill="#FFF" d="M0 0h25v7H0z"/><path fill="#D52B1E" d="M0 7h25v7H0z"/><path fill="#0039A6" d="M0 4.667h25v4.667H0z"/></g></svg>
<svg width="70" height="70" viewBox="-20 -20 70 70" id="i_accordeon-close" y="54"><title>—</title><path d="M22.71 15.657H7.29v-1.314h15.42v1.314zM28.535 30H1.465c-.4 0-.743-.144-1.03-.433A1.408 1.408 0 0 1 0 28.537V1.463C0 1.066.144.722.433.434A1.408 1.408 0 0 1 1.463 0h27.073c.398 0 .742.144 1.03.433.29.29.434.633.434 1.03v27.073c0 .398-.144.742-.433 1.03a1.408 1.408 0 0 1-1.03.434zM1.703 28.297h26.594V1.703H1.703v26.594z" fill="#E5E5E5" fill-rule="evenodd"/></svg>
<svg width="70" height="70" viewBox="-20 -20 70 70" id="i_accordeon-open" y="124"><title>Shape</title><path d="M22.72 15.646h-7.074v7.074h-1.292v-7.074H7.28v-1.292h7.074V7.28h1.292v7.074h7.074v1.292zM28.562 30H1.468c-.41 0-.76-.142-1.042-.426A1.383 1.383 0 0 1 0 28.562V1.468c0-.41.142-.76.426-1.042A1.417 1.417 0 0 1 1.468 0h27.094c.39 0 .73.142 1.012.426.284.283.426.63.426 1.042v27.094c0 .39-.142.73-.426 1.012a1.383 1.383 0 0 1-1.012.426zm-26.86-1.703h26.595V1.703H1.703v26.594z" fill="#E5E5E5" fill-rule="evenodd"/></svg>
<svg width="160" height="160" viewBox="-20 -20 160 160" id="i_alert" y="194"><title>Shape</title><path d="M65.52 71.507H54.6l-2.35-44.03h15.617l-2.348 44.03zm2.347 15.5c0 2.19-.783 4.07-2.348 5.635-1.567 1.565-3.406 2.348-5.52 2.348-2.192 0-4.07-.783-5.636-2.348-1.566-1.566-2.348-3.444-2.348-5.636 0-2.114.782-3.953 2.348-5.52C55.93 79.923 57.808 79.14 60 79.14c2.114 0 3.953.783 5.52 2.348 1.564 1.566 2.347 3.405 2.347 5.52zM60 120c-8.297 0-16.086-1.566-23.366-4.697-7.28-3.13-13.64-7.417-19.08-12.857-5.44-5.44-9.726-11.8-12.857-19.08C1.567 76.086 0 68.296 0 60c0-8.22 1.566-15.97 4.697-23.25 3.13-7.28 7.417-13.64 12.857-19.08 5.44-5.44 11.8-9.744 19.08-12.915C43.914 1.585 51.704 0 60 0c8.22 0 15.97 1.585 23.25 4.755 7.28 3.17 13.64 7.476 19.08 12.916 5.44 5.44 9.744 11.8 12.915 19.08C118.415 44.03 120 51.78 120 60c0 8.297-1.585 16.086-4.755 23.366-3.17 7.28-7.476 13.64-12.916 19.08-5.44 5.44-11.8 9.726-19.08 12.857C75.97 118.433 68.22 120 60 120zM60 6.223c-7.436 0-14.423 1.41-20.96 4.227-6.535 2.818-12.23 6.673-17.083 11.566-4.853 4.892-8.69 10.606-11.507 17.143C7.632 45.694 6.223 52.64 6.223 60c0 7.436 1.41 14.423 4.227 20.96 2.818 6.535 6.654 12.23 11.507 17.083 4.853 4.853 10.548 8.69 17.084 11.507 6.537 2.818 13.524 4.227 20.96 4.227 7.358 0 14.305-1.41 20.84-4.227 6.538-2.818 12.252-6.654 17.144-11.507 4.893-4.853 8.748-10.548 11.566-17.084 2.818-6.537 4.227-13.524 4.227-20.96 0-7.358-1.41-14.305-4.227-20.84-2.818-6.538-6.673-12.252-11.566-17.144-4.892-4.893-10.606-8.748-17.143-11.566C74.306 7.632 67.36 6.223 60 6.223z" fill="#666" fill-rule="evenodd"/></svg>
<svg width="51" height="46" viewBox="-20 -20 51 46" id="i_angle" y="354"><title>dd</title><path d="M5.5 5.385L.183 0 0 .183 5.5 5.75 11 .183 10.817 0 5.5 5.385z" fill="#666" fill-rule="evenodd"/></svg>
<svg width="54" height="51" viewBox="-20 -20 54 51" id="i_arr-left" y="400"><title>arrow</title><g fill-rule="evenodd"><path d="M6.15 10.038L1.662 5.476 6.223.84 5.395 0 0 5.487l5.312 5.402.837-.85z"/><path d="M14 4.86H.778v1.207H14V4.86z"/></g></svg>
<svg width="58" height="54" viewBox="-20 -20 58 54" id="i_arr-right" y="451"><title>arrow</title><g fill="#FFF" fill-rule="evenodd"><path d="M10.094 12.906l5.768-5.865L10 1.08 11.062 0 18 7.055 11.17 14l-1.076-1.094z"/><path d="M0 6.25h17V7.8H0V6.25z"/></g></svg>
<svg width="62" height="62" viewBox="-20 -20 62 62" id="i_close-big" y="505"><title>x</title><path d="M21.89 20.753L12.16 11l9.732-9.753a.28.28 0 0 0 .11-.23.28.28 0 0 0-.11-.23L21.213.11a.416.416 0 0 0-.11-.076.29.29 0 0 0-.13-.033.23.23 0 0 0-.12.034 3.022 3.022 0 0 0-.12.076L11 9.84 1.268.11a3.022 3.022 0 0 0-.12-.077.23.23 0 0 0-.12-.033.29.29 0 0 0-.13.033.416.416 0 0 0-.11.076L.11.786a.28.28 0 0 0-.11.23c0 .095.037.178.11.25L9.84 11 .11 20.753a.28.28 0 0 0-.11.23.28.28 0 0 0 .11.23l.677.678c.03.03.066.055.11.077a.29.29 0 0 0 .13.033.23.23 0 0 0 .12-.033.508.508 0 0 0 .1-.076L11 12.16l9.753 9.73a.22.22 0 0 0 .1.088.32.32 0 0 0 .12.022.413.413 0 0 0 .13-.022.21.21 0 0 0 .11-.087l.678-.677a.416.416 0 0 0 .077-.11.29.29 0 0 0 .033-.13.23.23 0 0 0-.033-.12.51.51 0 0 0-.076-.1z" fill="#FFF" fill-rule="evenodd"/></svg>
<svg width="59" height="52" viewBox="-20 -20 59 52" id="i_eye" y="567"><title>eye</title><path d="M9.5 0C5.356 0 1.765 2.438 0 6c1.765 3.562 5.356 6 9.5 6 4.143 0 7.735-2.438 9.5-6-1.765-3.562-5.357-6-9.5-6zm4.684 3.182A9.084 9.084 0 0 1 16.957 6a9.084 9.084 0 0 1-2.773 2.818 8.63 8.63 0 0 1-9.368 0A9.085 9.085 0 0 1 2.043 6a9.083 9.083 0 0 1 2.993-2.955 4.833 4.833 0 0 0-.286 1.643c0 2.65 2.127 4.8 4.75 4.8s4.75-2.15 4.75-4.8c0-.578-.1-1.13-.286-1.643.074.045.147.09.22.137zM9.5 4.087c0 .995-.797 1.8-1.78 1.8a1.79 1.79 0 0 1-1.783-1.8c0-.994.798-1.8 1.782-1.8a1.79 1.79 0 0 1 1.78 1.8z" fill="#CDCDCD" fill-rule="evenodd"/></svg>
<svg width="49" height="58" viewBox="-20 -20 49 58" id="i_fb" y="619"><title>Shape</title><path d="M7.457 2.895l-.803.112c-.536.075-.804.477-.804 1.206v2.025h2.99l-.386 3.02H5.85v7.876H2.7V9.26H0V6.238h2.7V3.923l.418-1.992C3.396.603 4.51-.04 6.46.003c.557 0 1.044.005 1.462.016C8.34.028 8.7.034 9 .034v2.86H7.456z" fill="#FFF" fill-rule="evenodd"/></svg>
<svg width="65" height="65" viewBox="-20 -20 65 65" id="i_field_question" y="677"><title>?</title><path d="M10.515 14.804v-.686a3.426 3.426 0 0 1 .367-1.57c.13-.228.315-.456.552-.685.237-.23.527-.474.87-.736.327-.228.6-.44.82-.637.22-.196.38-.367.48-.515.113-.147.195-.302.244-.465.05-.164.074-.335.074-.515 0-.196-.037-.372-.11-.527a1.115 1.115 0 0 0-.332-.404 2.24 2.24 0 0 0-.55-.233 2.7 2.7 0 0 0-.724-.085c-.474 0-.976.078-1.507.233a9.76 9.76 0 0 0-1.705.698l-1.03-2.058a9.313 9.313 0 0 1 2.17-.883 8.948 8.948 0 0 1 2.29-.294c.64 0 1.215.08 1.73.234.514.155.96.388 1.335.7.376.31.662.67.858 1.077.196.41.294.875.294 1.398 0 .343-.04.666-.122.968a3.22 3.22 0 0 1-.344.82 5.07 5.07 0 0 1-.686.798 9.105 9.105 0 0 1-1.103.894c-.31.23-.56.425-.747.59a2.626 2.626 0 0 0-.405.415c-.08.115-.143.25-.184.405-.04.155-.06.33-.06.527v.563l-2.475-.024zm2.916 3.235c0 .457-.158.845-.477 1.163a1.584 1.584 0 0 1-1.164.478c-.442 0-.826-.158-1.153-.477a1.565 1.565 0 0 1-.49-1.164c0-.442.163-.82.49-1.14.327-.32.71-.478 1.152-.478.457 0 .845.16 1.163.478.32.318.478.698.478 1.14zM12.5 25c-1.716 0-3.333-.327-4.853-.98a12.63 12.63 0 0 1-3.983-2.684 12.67 12.67 0 0 1-2.684-3.97C.327 15.853 0 14.23 0 12.5c0-1.716.327-3.333.98-4.853a12.63 12.63 0 0 1 2.684-3.983A12.63 12.63 0 0 1 7.647.98C9.167.327 10.784 0 12.5 0c1.716 0 3.333.327 4.853.98a12.63 12.63 0 0 1 3.983 2.684 12.63 12.63 0 0 1 2.684 3.983c.653 1.52.98 3.137.98 4.853 0 1.732-.327 3.354-.98 4.865a12.67 12.67 0 0 1-2.684 3.97 12.63 12.63 0 0 1-3.983 2.685c-1.52.653-3.137.98-4.853.98zm0-23.7c-1.552 0-3.007.293-4.363.88a11.373 11.373 0 0 0-3.554 2.403A11.548 11.548 0 0 0 2.17 8.137c-.596 1.356-.894 2.81-.894 4.363 0 1.552.298 3.007.894 4.363a11.702 11.702 0 0 0 2.414 3.566 11.27 11.27 0 0 0 3.554 2.413c1.356.588 2.81.882 4.363.882 1.553 0 3.008-.294 4.364-.882a11.27 11.27 0 0 0 3.554-2.414 11.702 11.702 0 0 0 2.414-3.567c.596-1.356.894-2.81.894-4.363 0-1.552-.298-3.007-.894-4.363a11.548 11.548 0 0 0-2.414-3.554 11.373 11.373 0 0 0-3.554-2.402c-1.356-.587-2.81-.88-4.363-.88z" fill-rule="evenodd"/></svg>
<svg width="61" height="56" viewBox="-20 -20 61 56" id="i_filter_check" y="742"><title>Shape</title><path d="M7.336 15.65L0 8.315l1.972-1.97 5.364 5.363L19.028 0 21 1.972 7.336 15.65z" fill="#FFF" fill-rule="evenodd"/></svg>
<svg width="52" height="52" viewBox="-20 -20 52 52" id="i_filter_close" y="798"><title>x-icon</title><g fill="none" fill-rule="evenodd"><circle fill="#666" cx="6" cy="6" r="6"/><path d="M6.66 6.015l2.29-2.29-.654-.653-2.29 2.29-2.29-2.29-.652.654 2.29 2.29-2.29 2.29.654.653 2.29-2.29 2.288 2.29.655-.655-2.29-2.29z" fill="#FFF"/></g></svg>
<svg width="52" height="55" viewBox="-20 -20 52 55" id="i_filter_reload" y="850"><title>reload</title><path d="M11.656 5.157l-.098-.294-1.118.867.042.14c.12.447.18.9.175 1.362-.005.46-.082.91-.23 1.35a4.486 4.486 0 0 1-1.594 2.277c-.41.306-.855.54-1.335.705a4.595 4.595 0 0 1-2.005.216 4.72 4.72 0 0 1-.503-.083l.307-1.313-3.87 1.174 2.948 2.753.307-1.3c.215.048.434.082.657.106.223.023.45.035.684.035.662 0 1.3-.104 1.915-.314a6.117 6.117 0 0 0 1.718-.915 5.844 5.844 0 0 0 1.3-1.37 5.98 5.98 0 0 0 1.04-3.52 6.066 6.066 0 0 0-.342-1.873zM1.524 8.44a4.514 4.514 0 0 1-.182-1.363c.01-.46.084-.91.224-1.348.15-.458.36-.88.63-1.266.27-.387.595-.724.977-1.013.41-.307.853-.542 1.328-.705A4.575 4.575 0 0 1 5.997 2.5a4.744 4.744 0 0 1 1.02.112l-.306 1.33 3.87-1.175L7.63 0l-.306 1.3a5.98 5.98 0 0 0-.664-.105 6.674 6.674 0 0 0-.678-.035A5.955 5.955 0 0 0 2.35 2.39a5.972 5.972 0 0 0-1.307 1.37 5.774 5.774 0 0 0-.797 1.676A6.274 6.274 0 0 0 .002 7.28a5.69 5.69 0 0 0 .35 1.874l.097.293 1.117-.866-.042-.14z" fill-rule="evenodd"/></svg>
<svg width="70" height="70" viewBox="-20 -20 70 70" id="i_footer_fb" y="905"><title>fb</title><path d="M17.7 9.922l-.733.102c-.49.07-.734.436-.734 1.1v1.85h2.73l-.352 2.76h-2.377v7.192h-2.877v-7.192H10.89v-2.76h2.466V10.86l.382-1.82c.254-1.212 1.272-1.8 3.053-1.76.51 0 .955.005 1.336.015.382.01.71.014.984.014V9.92H17.7zM15 30c-2.074 0-4.022-.39-5.84-1.174a15.127 15.127 0 0 1-4.77-3.214 15.127 15.127 0 0 1-3.216-4.77C.39 19.022 0 17.072 0 15s.39-4.022 1.174-5.84a15.127 15.127 0 0 1 3.214-4.77 15.127 15.127 0 0 1 4.77-3.216C10.978.39 12.928 0 15 0s4.022.39 5.84 1.174c1.82.783 3.41 1.854 4.77 3.214a15.127 15.127 0 0 1 3.216 4.77C29.61 10.978 30 12.928 30 15s-.39 4.022-1.174 5.84a15.127 15.127 0 0 1-3.214 4.77 15.127 15.127 0 0 1-4.77 3.216C19.022 29.61 17.072 30 15 30zm0-28.474c-1.86 0-3.606.358-5.24 1.072a13.78 13.78 0 0 0-4.27 2.89A13.575 13.575 0 0 0 2.612 9.76c-.705 1.634-1.057 3.38-1.057 5.24 0 1.86.352 3.606 1.057 5.24a13.575 13.575 0 0 0 2.876 4.27 13.575 13.575 0 0 0 4.27 2.877c1.635.705 3.38 1.057 5.24 1.057 1.86 0 3.607-.352 5.24-1.057a13.575 13.575 0 0 0 4.27-2.876 13.78 13.78 0 0 0 2.893-4.27c.715-1.634 1.073-3.38 1.073-5.24 0-1.86-.358-3.606-1.072-5.24a13.78 13.78 0 0 0-2.89-4.27 13.78 13.78 0 0 0-4.27-2.892c-1.635-.714-3.38-1.072-5.24-1.072z" fill="#FFF" fill-rule="evenodd"/></svg>
<svg width="70" height="70" viewBox="-20 -20 70 70" id="i_footer_inst" y="975"><title>inst</title><path d="M19.99 8.542c.43 0 .803.152 1.116.455.313.303.47.67.47 1.1v9.98c0 .43-.157.8-.47 1.102a1.548 1.548 0 0 1-1.116.454h-9.98a1.5 1.5 0 0 1-1.1-.455 1.5 1.5 0 0 1-.456-1.1v-9.982c0-.43.152-.798.455-1.1a1.5 1.5 0 0 1 1.1-.456h9.98zm-2.436 3.61c0 .118.034.21.103.28a.377.377 0 0 0 .278.102h1.762a.39.39 0 0 0 .264-.102.352.352 0 0 0 .118-.28v-1.76a.32.32 0 0 0-.117-.25.39.39 0 0 0-.263-.103h-1.762a.377.377 0 0 0-.278.102.34.34 0 0 0-.103.25v1.76zm-2.525.44c-.705 0-1.302.246-1.79.735a2.436 2.436 0 0 0-.735 1.79c0 .685.245 1.272.734 1.762.488.488 1.085.733 1.79.733a2.45 2.45 0 0 0 1.775-.734c.5-.49.75-1.078.75-1.763 0-.704-.25-1.3-.75-1.79a2.45 2.45 0 0 0-1.776-.734zm5.078 1.47h-1.233c.04.155.073.322.102.498.03.176.045.362.045.557 0 1.096-.392 2.03-1.175 2.804-.782.774-1.722 1.16-2.818 1.16s-2.036-.386-2.82-1.16c-.78-.772-1.173-1.707-1.173-2.803 0-.195.01-.38.03-.557.02-.176.058-.343.117-.5H9.95v5.695a.39.39 0 0 0 .104.265.32.32 0 0 0 .25.117h9.422c.098 0 .186-.04.264-.117a.365.365 0 0 0 .118-.265V14.06zM15 30c-2.074 0-4.022-.39-5.84-1.174a15.127 15.127 0 0 1-4.77-3.214 15.127 15.127 0 0 1-3.216-4.77C.39 19.022 0 17.072 0 15s.39-4.022 1.174-5.84a15.127 15.127 0 0 1 3.214-4.77 15.127 15.127 0 0 1 4.77-3.216C10.978.39 12.928 0 15 0s4.022.39 5.84 1.174c1.82.783 3.41 1.854 4.77 3.214a15.127 15.127 0 0 1 3.216 4.77C29.61 10.978 30 12.928 30 15s-.39 4.022-1.174 5.84a15.127 15.127 0 0 1-3.214 4.77 15.127 15.127 0 0 1-4.77 3.216C19.022 29.61 17.072 30 15 30zm0-28.444c-1.86 0-3.606.352-5.24 1.057A13.575 13.575 0 0 0 5.49 5.49a13.575 13.575 0 0 0-2.878 4.27c-.705 1.634-1.057 3.38-1.057 5.24 0 1.86.352 3.606 1.057 5.24a13.575 13.575 0 0 0 2.876 4.27 13.575 13.575 0 0 0 4.27 2.877c1.635.705 3.38 1.057 5.24 1.057 1.86 0 3.607-.352 5.24-1.057a13.575 13.575 0 0 0 4.27-2.876 13.575 13.575 0 0 0 2.878-4.27c.705-1.634 1.057-3.38 1.057-5.24 0-1.86-.352-3.606-1.057-5.24a13.575 13.575 0 0 0-2.876-4.27 13.575 13.575 0 0 0-4.27-2.877c-1.635-.705-3.38-1.057-5.24-1.057z" fill="#FFF" fill-rule="evenodd"/></svg>
<svg width="134" height="71" viewBox="-20 -20 134 71" id="i_footer_mynb" y="1045"><title>Shape</title><path d="M61.67 15.733l-1.904 3.252-10.43-.586 1.055-1.817 11.28-.85zm7.53-10.4l.937 3.604-14.795-.997 1.054-1.816 12.804-.79zM59.384.91h8.672l.644 2.46-10.34-.644L59.385.91zm-.762 20.097l-1.494 2.607h-10.78l1.025-1.816 11.25-.79zm18.926-7.002l-2.608 4.54h2.49c.587 0 1.295-.165 2.125-.497.83-.332 1.41-.908 1.743-1.73.293-.76.25-1.337-.132-1.727-.38-.39-.757-.585-1.128-.585h-2.49zm2.49-4.336h2.168c.723 0 1.42-.167 2.095-.5a2.816 2.816 0 0 0 1.42-1.523c.256-.625.25-1.167-.013-1.626-.264-.458-.62-.677-1.07-.658l-2.11-.03-2.49 4.337zm-9.814-.763l2.197-3.78 7.413-.497.264-.47-6.856-.468L74.855.91H87.54c1.952 0 3.53.405 4.73 1.216 1.2.81 1.52 2.24.953 4.292-.078.312-.25.723-.513 1.23-.264.508-.65 1.04-1.157 1.597-.508.557-1.162 1.094-1.963 1.61-.8.52-1.787.944-2.96 1.276.51.06 1.197.396 2.066 1.01.87.617 1.197 1.628.982 3.034-.196 1.27-.703 2.368-1.524 3.296-.82.927-1.772 1.7-2.856 2.314a13.85 13.85 0 0 1-3.384 1.377c-1.172.304-2.207.455-3.105.455h-15l-.763-2.9 7.88-.557.264-.47-8.524-.526-.937-3.428 12.127-.732.264-.44-21.766-1.376 1.025-1.817 23.466-1.554.263-.44-6.885-.468zM34.22 23.614h-4.894l-1.7-13.36-7.763 13.36h-4.57l-1.73-13.534L5.86 23.614H0L13.36.88h3.954l1.817 14.297L27.57.88h3.78l2.87 22.734zM52.44 7.062L38.906 30.88h-5.918l4.16-7.266-2.08-16.552h5.01l1.2 9.61 5.216-9.61h5.947z" fill="#E21836" fill-rule="evenodd"/></svg>
<svg width="99" height="79" viewBox="-20 -20 99 79" id="i_footer_nb" y="1116"><title>Group 4</title><g fill="none" fill-rule="evenodd"><rect fill="#E21836" width="59" height="39" rx="3"/><path d="M28.73 17.598l1.534-2.652 5.174-.34.186-.327-4.803-.326L31.953 12h8.892c.682 0 1.31.067 1.882.202.573.134 1.048.35 1.425.65.378.3.634.696.768 1.187.134.49.103 1.097-.093 1.82a5.197 5.197 0 0 1-.364.86c-.18.358-.45.73-.812 1.118a7.327 7.327 0 0 1-1.38 1.124c-.556.362-1.243.657-2.06.884.352.04.83.276 1.434.705.604.43.834 1.14.69 2.134a4.365 4.365 0 0 1-1.062 2.287 7.747 7.747 0 0 1-1.998 1.613c-.76.43-1.55.75-2.37.962-.82.212-1.547.317-2.177.317l-10.503.016-.526-2.047 5.514-.386.186-.31-5.98-.373-.634-2.402 8.49-.496.185-.326-15.26-.96.73-1.273 16.42-1.07.185-.31-4.802-.325zm6.863.542l1.518-.015c.507 0 .995-.116 1.465-.35a1.94 1.94 0 0 0 .983-1.06c.176-.435.173-.813-.007-1.133-.18-.32-.43-.48-.75-.48h-1.457l-1.75 3.038zm-1.735 3.024l-1.828 3.163h1.735c.402 0 .898-.114 1.487-.34.59-.228.99-.63 1.208-1.21.207-.528.178-.928-.085-1.202s-.524-.41-.782-.41h-1.735zm-13.26 4.9l-1.054 1.798-7.544.016.728-1.272 7.87-.542zM21.14 12h6.057l.464 1.72-7.25-.45.73-1.27zm6.862 3.086l.666 2.512-10.363-.683.728-1.27 8.97-.56zm-5.282 7.272l-1.317 2.28-7.296-.404.728-1.27 7.885-.606z" fill="#FFF"/></g></svg>
<svg width="65" height="78" viewBox="-20 -20 65 78" id="i_footer_pin" y="1195"><title>Shape</title><path d="M22.925 6.66a12.112 12.112 0 0 0-1.886-2.67A12.357 12.357 0 0 0 15.545.58a11.572 11.572 0 0 0-3.35-.478C11.045.1 9.935.26 8.86.58c-1.074.32-2.07.768-2.984 1.345a13.003 13.003 0 0 0-2.51 2.065 11.795 11.795 0 0 0-1.903 2.672 13.067 13.067 0 0 0-1.08 2.82A12.437 12.437 0 0 0 0 12.595c0 1.057.128 2.077.385 3.06.256.982.616 1.978 1.08 2.985a33.827 33.827 0 0 0 1.648 3.115c.635 1.068 1.33 2.205 2.087 3.41.44.736.897 1.492 1.373 2.266.477.775.965 1.59 1.465 2.45.5.86 1.007 1.765 1.52 2.71a75.303 75.303 0 0 1 1.538 3.004l1.1 2.25 1.097-2.25a75.305 75.305 0 0 1 1.54-3.003c.51-.945 1.018-1.85 1.52-2.71.5-.86.987-1.675 1.463-2.45.476-.773.946-1.53 1.41-2.266a158.65 158.65 0 0 0 2.087-3.41 30.788 30.788 0 0 0 1.63-3.114 20.533 20.533 0 0 0 1.08-2.985c.27-.983.403-2.003.403-3.06 0-1.08-.134-2.12-.403-3.114a13.782 13.782 0 0 0-1.098-2.82zm-10.73-4.016A9.44 9.44 0 0 1 17.65 4.34a10.33 10.33 0 0 1 2.09 1.916 9.285 9.285 0 0 1 1.464 2.47c.244.59.427 1.203.55 1.842.12.64.182 1.303.182 1.99 0 .86-.116 1.714-.348 2.562a16.385 16.385 0 0 1-.99 2.635c-.426.91-.932 1.856-1.52 2.838-.584.983-1.23 2.04-1.94 3.17a347.636 347.636 0 0 0-2.38 3.926 108.102 108.102 0 0 0-2.563 4.55 78.59 78.59 0 0 0-2.545-4.55 679.816 679.816 0 0 0-2.4-3.926 584.583 584.583 0 0 1-1.903-3.17 32.857 32.857 0 0 1-1.52-2.838A17.8 17.8 0 0 1 2.82 15.12a9.214 9.214 0 0 1-.366-2.56c0-.69.067-1.353.2-1.99.135-.64.325-1.255.57-1.845a9.564 9.564 0 0 1 1.445-2.47A9.92 9.92 0 0 1 6.74 4.34a9.573 9.573 0 0 1 5.455-1.696zm0 16.807c1.855 0 3.442-.67 4.76-2.008 1.32-1.34 1.978-2.955 1.978-4.847 0-.245-.018-.485-.055-.718-.036-.234-.08-.473-.128-.72-.293-1.547-1.056-2.843-2.29-3.887-1.232-1.045-2.654-1.567-4.265-1.567-1.612 0-3.028.522-4.248 1.567-1.22 1.044-1.99 2.34-2.307 3.888a7.912 7.912 0 0 0-.11.72 6.907 6.907 0 0 0-.037.717c0 1.892.653 3.508 1.96 4.847 1.306 1.34 2.886 2.01 4.742 2.01zm0-11.204c1.025 0 1.93.332 2.71.995a4.433 4.433 0 0 1 1.5 2.47 4.715 4.715 0 0 1 .074.85c0 1.203-.42 2.23-1.264 3.076-.842.848-1.85 1.272-3.02 1.272-1.173 0-2.174-.424-3.004-1.272-.83-.848-1.245-1.873-1.245-3.077a4.715 4.715 0 0 1 .073-.85c.195-.982.684-1.805 1.465-2.47a4.062 4.062 0 0 1 2.71-.994z" fill="#E21836" fill-rule="evenodd"/></svg>
<svg width="79" height="79" viewBox="-20 -20 79 79" id="i_footer_subs" y="1273"><title>subscribe</title><path d="M19.52 0c-2.69 0-5.22.514-7.59 1.54C9.556 2.57 7.49 3.964 5.725 5.727 3.963 7.49 2.568 9.55 1.54 11.91.515 14.27 0 16.792 0 19.48s.514 5.22 1.54 7.59c1.028 2.373 2.423 4.44 4.186 6.204 1.763 1.763 3.83 3.158 6.202 4.185C14.3 38.485 16.83 39 19.52 39s5.213-.514 7.572-1.54 4.42-2.423 6.183-4.186 3.158-3.83 4.185-6.202C38.486 24.7 39 22.17 39 19.48s-.514-5.213-1.54-7.572-2.423-4.42-4.186-6.183C31.51 3.963 29.45 2.568 27.09 1.54 24.73.515 22.208 0 19.52 0zm0 36.3c-2.335 0-4.522-.44-6.564-1.314A16.885 16.885 0 0 1 7.61 31.39a16.885 16.885 0 0 1-3.596-5.346C3.14 24.002 2.7 21.814 2.7 19.48c0-2.307.44-4.482 1.314-6.524A16.885 16.885 0 0 1 7.61 7.61a16.885 16.885 0 0 1 5.346-3.596C14.998 3.14 17.186 2.7 19.52 2.7c1.876 0 3.67.3 5.383.896a17.21 17.21 0 0 1 4.68 2.473 16.974 16.974 0 0 1 3.672 3.766 15.89 15.89 0 0 1 2.32 4.775c.153.533.26 1.08.324 1.637.062.558.094 1.103.094 1.636 0 3.07-.62 5.314-1.864 6.735-1.243 1.42-2.626 2.13-4.148 2.13-1.166 0-2.067-.304-2.7-.913-.635-.61-.952-1.458-.952-2.55 0-.253.025-.608.076-1.065.05-.456.127-.976.228-1.56l1.712-9.778-2.853-.38-.57 2.967c-.508-.914-1.263-1.738-2.265-2.474-1.002-.736-2.34-1.103-4.014-1.103-1.218 0-2.416.272-3.596.818a10.81 10.81 0 0 0-3.177 2.246c-.937.95-1.7 2.08-2.282 3.386s-.875 2.733-.875 4.28c0 1.167.203 2.233.61 3.197a7.497 7.497 0 0 0 1.654 2.472 7.224 7.224 0 0 0 2.454 1.58 8.06 8.06 0 0 0 2.97.55c1.622 0 3.005-.355 4.146-1.065a12.52 12.52 0 0 0 2.968-2.55c.406 1.092 1.116 1.967 2.13 2.626 1.016.66 2.31.99 3.882.99.99 0 1.972-.21 2.95-.628.975-.42 1.844-1.072 2.605-1.96a16.798 16.798 0 0 1-2.51 4.243 16.816 16.816 0 0 1-8.03 5.46 16.5 16.5 0 0 1-5.02.76zm4.603-18.265a7.45 7.45 0 0 1-.666 3.082 8.6 8.6 0 0 1-1.77 2.587 7.466 7.466 0 0 1-2.13 1.484c-.812.38-1.65.57-2.51.57-1.523 0-2.772-.47-3.75-1.407-.976-.937-1.464-2.256-1.464-3.956 0-1.14.21-2.2.628-3.177a7.982 7.982 0 0 1 1.694-2.53 7.148 7.148 0 0 1 2.207-1.58 6.022 6.022 0 0 1 2.512-.55c1.497 0 2.746.52 3.748 1.56 1.002 1.04 1.503 2.345 1.503 3.918z" fill="#E21836" fill-rule="evenodd"/></svg>
<svg width="70" height="70" viewBox="-20 -20 70 70" id="i_footer_tw" y="1352"><title>tw</title><path d="M22.757 10.293a6.883 6.883 0 0 1-.72.88 7.2 7.2 0 0 1-.864.762v.41a9.306 9.306 0 0 1-.586 3.198 9.122 9.122 0 0 1-1.73 2.917c-.763.87-1.71 1.58-2.845 2.127-1.134.547-2.434.82-3.9.82-.9 0-1.76-.126-2.58-.38a9.375 9.375 0 0 1-2.29-1.056c.12.02.24.035.368.045a6.193 6.193 0 0 0 2.522-.352 6.563 6.563 0 0 0 1.833-1.012c-.704 0-1.33-.21-1.877-.63a3.118 3.118 0 0 1-1.114-1.57 3.034 3.034 0 0 0 1.437-.057 3.22 3.22 0 0 1-1.818-1.1c-.488-.576-.733-1.256-.733-2.038v-.03c.214.118.444.21.69.28.243.068.492.112.746.13a3.215 3.215 0 0 1-1.026-1.142 3.15 3.15 0 0 1-.38-1.525c0-.294.038-.572.116-.836a3.39 3.39 0 0 1 .322-.748 9.176 9.176 0 0 0 2.874 2.332 8.657 8.657 0 0 0 3.695.982 1.505 1.505 0 0 1-.073-.352 4.608 4.608 0 0 1-.015-.38c0-.88.307-1.63.923-2.245a3.054 3.054 0 0 1 2.244-.922c.47 0 .904.088 1.305.264.4.176.747.42 1.04.733.352-.078.7-.18 1.042-.308.342-.127.67-.28.982-.455a3.164 3.164 0 0 1-1.408 1.76 6.39 6.39 0 0 0 .94-.19c.312-.09.605-.19.88-.31zM14.985 30c-2.052 0-3.993-.39-5.82-1.173a15.067 15.067 0 0 1-4.78-3.21 15.067 15.067 0 0 1-3.212-4.78A14.644 14.644 0 0 1 0 15.014c0-2.073.39-4.018 1.173-5.836a15.112 15.112 0 0 1 3.21-4.767 15.27 15.27 0 0 1 4.78-3.225A14.488 14.488 0 0 1 14.986 0c2.073 0 4.018.396 5.836 1.188a15.318 15.318 0 0 1 4.767 3.225 15.318 15.318 0 0 1 3.225 4.766C29.604 10.996 30 12.94 30 15.014c0 2.052-.396 3.993-1.188 5.82a15.27 15.27 0 0 1-3.225 4.78 15.112 15.112 0 0 1-4.766 3.212C19.004 29.61 17.06 30 14.986 30zm0-28.446c-1.857 0-3.602.352-5.234 1.056A13.44 13.44 0 0 0 5.485 5.5 13.74 13.74 0 0 0 2.61 9.78c-.704 1.633-1.056 3.377-1.056 5.235 0 1.857.352 3.602 1.056 5.234a13.56 13.56 0 0 0 2.874 4.266A13.56 13.56 0 0 0 9.75 27.39c1.632.704 3.377 1.056 5.234 1.056 1.858 0 3.602-.352 5.235-1.056a13.74 13.74 0 0 0 4.28-2.874 13.44 13.44 0 0 0 2.89-4.267c.703-1.633 1.055-3.378 1.055-5.235 0-1.858-.352-3.602-1.056-5.235A13.614 13.614 0 0 0 24.5 5.5a13.614 13.614 0 0 0-4.28-2.89c-1.633-.704-3.377-1.056-5.235-1.056z" fill="#FFF" fill-rule="evenodd"/></svg>
<svg width="70" height="70" viewBox="-20 -20 70 70" id="i_footer_vk" y="1422"><g fill="#FFF" fill-rule="evenodd"><path d="M15 30c-2.074 0-4.022-.39-5.84-1.174a15.127 15.127 0 0 1-4.77-3.214 15.127 15.127 0 0 1-3.216-4.77C.39 19.022 0 17.072 0 15s.39-4.022 1.174-5.84a15.127 15.127 0 0 1 3.214-4.77 15.127 15.127 0 0 1 4.77-3.216C10.978.39 12.928 0 15 0s4.022.39 5.84 1.174c1.82.783 3.41 1.854 4.77 3.214a15.127 15.127 0 0 1 3.216 4.77C29.61 10.978 30 12.928 30 15s-.39 4.022-1.174 5.84a15.127 15.127 0 0 1-3.214 4.77 15.127 15.127 0 0 1-4.77 3.216C19.022 29.61 17.072 30 15 30zm0-28.444c-1.86 0-3.606.352-5.24 1.057A13.575 13.575 0 0 0 5.49 5.49a13.575 13.575 0 0 0-2.878 4.27c-.705 1.634-1.057 3.38-1.057 5.24 0 1.86.352 3.606 1.057 5.24a13.575 13.575 0 0 0 2.876 4.27 13.575 13.575 0 0 0 4.27 2.877c1.635.705 3.38 1.057 5.24 1.057 1.86 0 3.607-.352 5.24-1.057a13.575 13.575 0 0 0 4.27-2.876 13.575 13.575 0 0 0 2.878-4.27c.705-1.634 1.057-3.38 1.057-5.24 0-1.86-.352-3.606-1.057-5.24a13.575 13.575 0 0 0-2.876-4.27 13.575 13.575 0 0 0-4.27-2.877c-1.635-.705-3.38-1.057-5.24-1.057z"/><path d="M16.505 15.876c-.382-.222-.913-.222-1.344-.222h-1.416v2.918h1.3c.482 0 1.095.035 1.51-.257.38-.256.597-.76.597-1.24 0-.444-.264-.976-.645-1.2zm-.534-2.492c.316-.24.48-.668.48-1.062 0-.428-.198-.84-.562-1.062-.382-.222-1.08-.17-1.527-.17h-.616v2.568h.817c.465 0 1.013.034 1.41-.274zm-.103 7.363H11V9h5.318c1.54 0 2.96.98 2.96 2.71 0 1.335-.744 2.25-1.695 2.534v.034c1.41.292 2.417 1.058 2.417 2.905 0 1.71-1.164 3.564-4.133 3.564z"/></g></svg>
<svg width="70" height="70" viewBox="-20 -20 70 70" id="i_footer_yt" y="1492"><title>yt</title><path d="M15.234 13.857c.762 0 1.514.01 2.256.03l2.227.058c.527 0 .98.19 1.362.572.38.38.57.835.57 1.362l.06 1.244a27.427 27.427 0 0 1 0 2.52l-.06 1.274c0 .527-.19.977-.57 1.348-.382.37-.836.556-1.363.556-.78.04-1.563.07-2.344.088-.78.02-1.572.02-2.373 0-.8.02-1.592.02-2.373 0a88.268 88.268 0 0 1-2.315-.088c-.546 0-1.005-.185-1.376-.556a1.836 1.836 0 0 1-.557-1.348c-.04-.43-.07-.855-.09-1.274-.02-.42-.02-.835 0-1.246-.02-.43-.02-.854 0-1.274.02-.42.05-.835.09-1.245 0-.528.184-.983.556-1.363.37-.38.83-.572 1.377-.572l2.197-.058a85.76 85.76 0 0 1 2.256-.03h.468zm-4.043 2.286h.94v-.88H9.315v.88h.967v5.068h.908v-5.067zm3.283.703h-.82v3.31a.64.64 0 0 1-.132.147.768.768 0 0 1-.13.088.46.46 0 0 1-.12.09.26.26 0 0 1-.116.028c-.04 0-.068-.01-.088-.03l-.058-.058a.186.186 0 0 1-.044-.088.616.616 0 0 1-.015-.146v-3.37h-.82v3.692c0 .117.014.23.043.337.03.107.063.19.102.25.04.057.098.106.176.145.08.04.167.06.265.06a.723.723 0 0 0 .22-.045c.087-.03.17-.064.25-.103a4.01 4.01 0 0 0 .467-.41v.47h.82v-4.366zm3.75 3.134c0 .215.024.406.073.572a.982.982 0 0 0 .25.425c.097.117.22.205.365.263.148.06.31.088.485.088.214 0 .395-.024.542-.073a.794.794 0 0 0 .366-.25.982.982 0 0 0 .25-.424c.048-.165.072-.365.072-.6v-.322h-.85v.293c0 .138-.004.245-.014.323a.293.293 0 0 1-.072.176.185.185 0 0 1-.103.087.43.43 0 0 1-.16.03.408.408 0 0 1-.177-.03.46.46 0 0 1-.117-.088 1.074 1.074 0 0 1-.043-.206 2.43 2.43 0 0 1-.015-.293v-.82h1.553V18.02c0-.215-.024-.4-.073-.557a1.185 1.185 0 0 0-.22-.41.794.794 0 0 0-.366-.25 1.623 1.623 0 0 0-.513-.07c-.176 0-.337.028-.483.086a1.17 1.17 0 0 0-.66.674 1.493 1.493 0 0 0-.087.528v1.962zm-2.96 1.23h.82v-.32c.06.057.118.11.177.16.058.05.117.093.176.132.058.04.122.063.19.073.068.01.142.015.22.015.136 0 .25-.02.337-.06a.55.55 0 0 0 .22-.175.62.62 0 0 0 .16-.307c.03-.127.044-.27.044-.425V17.87c0-.176-.02-.332-.058-.47a1.464 1.464 0 0 0-.148-.35.648.648 0 0 0-.263-.205.86.86 0 0 0-.324-.06c-.058 0-.122.006-.19.016a.456.456 0 0 0-.19.074 2.06 2.06 0 0 0-.176.132 1.126 1.126 0 0 0-.176.19v-1.933h-.82v5.947zm4.512-2.753h-.703v-.47c0-.077.005-.15.015-.22a.275.275 0 0 1 .073-.16.185.185 0 0 1 .103-.087.43.43 0 0 1 .16-.03.43.43 0 0 1 .162.03c.05.02.083.048.102.087.04.04.064.093.074.162.01.067.015.14.015.22v.467zm-3.31 2.14a.4.4 0 0 1-.088-.016.186.186 0 0 1-.088-.043.71.71 0 0 1-.206-.146v-2.753a.48.48 0 0 1 .073-.06c.03-.02.064-.038.103-.057a.184.184 0 0 1 .073-.044.325.325 0 0 1 .234.014c.05.02.083.05.103.088.04.04.063.088.073.147.01.058.015.127.015.205v2.256c0 .078-.005.14-.015.19a.523.523 0 0 1-.044.132.326.326 0 0 1-.235.088zm-4.63-9.728l-1.083-3.604h.937l.585 2.373h.06l.556-2.374h.938l-1.055 3.486v2.46h-.937V10.87zM13.8 9.813a1.108 1.108 0 0 1 .322-.79 1.46 1.46 0 0 1 .396-.235A1.29 1.29 0 0 1 15 8.7c.176 0 .332.03.47.09.135.058.262.136.38.233.097.118.175.245.234.38.06.138.088.285.088.44v2.286c0 .175-.03.336-.088.482a1.46 1.46 0 0 1-.234.396c-.098.097-.22.176-.367.234a1.375 1.375 0 0 1-.512.088 1.29 1.29 0 0 1-.483-.088 1.074 1.074 0 0 1-.366-.234 1.005 1.005 0 0 1-.248-.396 1.623 1.623 0 0 1-.073-.512V9.814zm.85 2.373c0 .06.004.113.014.162.01.047.034.09.073.13a.326.326 0 0 0 .234.088c.06 0 .11-.01.148-.03a.46.46 0 0 0 .117-.087.137.137 0 0 0 .074-.1.823.823 0 0 0 .013-.163V9.785a.482.482 0 0 0-.014-.117.26.26 0 0 0-.075-.117l-.117-.058a.326.326 0 0 0-.146-.03.36.36 0 0 0-.132.03.26.26 0 0 0-.176.176.482.482 0 0 0-.015.117v2.402zm2.343.91a1.65 1.65 0 0 1-.102-.265 1.118 1.118 0 0 1-.043-.322V8.818h.82v3.37c0 .058.005.107.015.146.01.04.024.068.044.088.02.02.044.034.073.044a.325.325 0 0 0 .19 0 .505.505 0 0 0 .146-.073l.117-.118.117-.117v-3.34h.82v4.395h-.82v-.47a4.83 4.83 0 0 1-.234.22 1.12 1.12 0 0 1-.235.162.66.66 0 0 1-.233.117.963.963 0 0 1-.234.03.63.63 0 0 1-.25-.044.608.608 0 0 1-.19-.132zM15 30c-2.07 0-4.014-.396-5.83-1.187a15.303 15.303 0 0 1-4.76-3.222 15.303 15.303 0 0 1-3.223-4.76C.397 19.014 0 17.07 0 15c0-2.07.396-4.014 1.187-5.83A15.303 15.303 0 0 1 4.41 4.41a15.303 15.303 0 0 1 4.76-3.223C10.986.397 12.93 0 15 0c2.07 0 4.014.396 5.83 1.187a15.303 15.303 0 0 1 4.76 3.222 15.303 15.303 0 0 1 3.223 4.76C29.603 10.986 30 12.93 30 15c0 2.07-.396 4.014-1.187 5.83a15.303 15.303 0 0 1-3.222 4.76 15.303 15.303 0 0 1-4.76 3.223C19.014 29.603 17.07 30 15 30zm0-28.447c-1.855 0-3.6.35-5.23 1.054a13.6 13.6 0 0 0-4.277 2.886A13.6 13.6 0 0 0 2.607 9.77C1.904 11.4 1.553 13.146 1.553 15s.35 3.6 1.054 5.23a13.6 13.6 0 0 0 2.886 4.277 13.6 13.6 0 0 0 4.278 2.886c1.63.703 3.375 1.054 5.23 1.054s3.6-.35 5.23-1.054a13.6 13.6 0 0 0 4.277-2.886 13.6 13.6 0 0 0 2.886-4.278c.703-1.63 1.054-3.375 1.054-5.23s-.35-3.6-1.054-5.23a13.6 13.6 0 0 0-2.886-4.277 13.6 13.6 0 0 0-4.278-2.886C18.6 1.904 16.854 1.553 15 1.553z" fill="#FFF" fill-rule="evenodd"/></svg>
<svg width="71" height="75" viewBox="-20 -20 71 75" id="i_geo_pin-black" y="1562"><title>geo copy 2</title><g fill="none" fill-rule="evenodd"><path d="M0 0h31v23H0V0zm0 23h7L0 35V23z" fill="#000"/><path d="M15.66 9.9l1.07-1.847 3.605-.237.13-.227-3.347-.228L17.906 6h6.197c.476 0 .913.047 1.312.14.4.094.73.245.994.454.26.21.44.485.533.827.094.343.072.767-.065 1.27a3.622 3.622 0 0 1-.254.6 3.467 3.467 0 0 1-.566.78c-.252.27-.573.53-.96.782-.39.253-.87.458-1.437.616.246.03.578.193 1 .492.42.3.58.794.48 1.486a3.042 3.042 0 0 1-.74 1.594 5.4 5.4 0 0 1-1.392 1.124 6.8 6.8 0 0 1-1.652.67c-.573.148-1.078.222-1.517.222l-7.32.01-.368-1.426 3.843-.27.13-.216-4.168-.26-.442-1.675 5.916-.347.13-.227-10.634-.67.507-.886 11.445-.746.13-.216L15.66 9.9zm4.783.38l1.058-.01c.354 0 .694-.082 1.02-.244.33-.162.558-.41.687-.74.123-.303.12-.566-.005-.79-.126-.223-.3-.335-.524-.335h-1.015l-1.22 2.12zm-1.21 2.107l-1.273 2.205h1.21c.28 0 .626-.08 1.036-.238.41-.16.69-.44.842-.843.144-.367.124-.646-.06-.837-.183-.19-.365-.286-.545-.286h-1.21zm-9.24 3.415l-.735 1.254-5.258.01.507-.886 5.485-.378zM10.37 6h4.222l.323 1.2-5.052-.314L10.37 6zm4.783 2.15l.464 1.75-7.223-.474.508-.886 6.25-.39zm-3.682 5.07l-.916 1.588-5.086-.28.508-.887 5.495-.42z" fill="#FFF"/></g></svg>
<svg width="71" height="75" viewBox="-20 -20 71 75" id="i_geo_pin-red" y="1637"><title>geo</title><g fill="none" fill-rule="evenodd"><path d="M0 0h31v23H0V0zm0 23h7L0 35V23z" fill="#E21836"/><path d="M15.66 9.9l1.07-1.847 3.605-.237.13-.227-3.347-.228L17.906 6h6.197c.476 0 .913.047 1.312.14.4.094.73.245.994.454.26.21.44.485.533.827.094.343.072.767-.065 1.27a3.622 3.622 0 0 1-.254.6 3.467 3.467 0 0 1-.566.78c-.252.27-.573.53-.96.782-.39.253-.87.458-1.437.616.246.03.578.193 1 .492.42.3.58.794.48 1.486a3.042 3.042 0 0 1-.74 1.594 5.4 5.4 0 0 1-1.392 1.124 6.8 6.8 0 0 1-1.652.67c-.573.148-1.078.222-1.517.222l-7.32.01-.368-1.426 3.843-.27.13-.216-4.168-.26-.442-1.675 5.916-.347.13-.227-10.634-.67.507-.886 11.445-.746.13-.216L15.66 9.9zm4.783.38l1.058-.01c.354 0 .694-.082 1.02-.244.33-.162.558-.41.687-.74.123-.303.12-.566-.005-.79-.126-.223-.3-.335-.524-.335h-1.015l-1.22 2.12zm-1.21 2.107l-1.273 2.205h1.21c.28 0 .626-.08 1.036-.238.41-.16.69-.44.842-.843.144-.367.124-.646-.06-.837-.183-.19-.365-.286-.545-.286h-1.21zm-9.24 3.415l-.735 1.254-5.258.01.507-.886 5.485-.378zM10.37 6h4.222l.323 1.2-5.052-.314L10.37 6zm4.783 2.15l.464 1.75-7.223-.474.508-.886 6.25-.39zm-3.682 5.07l-.916 1.588-5.086-.28.508-.887 5.495-.42z" fill="#FFF"/></g></svg>
<svg width="61" height="69" viewBox="-20 -20 61 69" id="i_header_cart" y="1712"><title/><path d="M12.116 18.975l-2.473-5.438H7.9l-2.278 8.58h1.856l1.49-5.635 2.586 5.636h1.603l2.277-8.58h-1.856l-1.462 5.437zM16.193 5.72a11.484 11.484 0 0 0-1.912-3.91C13.38.606 12.127 0 10.515 0c-1.593 0-2.84.604-3.74 1.813a11.485 11.485 0 0 0-1.91 3.907H0V29h21V5.72h-4.807zm-5.68-4.39c1.18.057 2.09.548 2.728 1.473a10.196 10.196 0 0 1 1.407 2.917H6.41c.3-1.02.768-1.992 1.405-2.917.637-.925 1.537-1.416 2.7-1.473zm8.8 25.97H1.687V7.42h2.81a9.264 9.264 0 0 0-.083.637l-.057.58a1.512 1.512 0 0 0-.28.397 1.07 1.07 0 0 0-.113.482c0 .32.112.594.337.82.225.227.487.34.787.34.32 0 .59-.113.816-.34.225-.226.337-.5.337-.82a1.13 1.13 0 0 0-.098-.454.98.98 0 0 0-.267-.368 107.547 107.547 0 0 1 .168-1.274h8.968a271.373 271.373 0 0 1 .17 1.303 1.176 1.176 0 0 0-.253.368 1.074 1.074 0 0 0-.085.426c0 .32.113.594.338.82.225.227.496.34.815.34.32 0 .59-.113.815-.34a1.123 1.123 0 0 0 .21-1.316 1.392 1.392 0 0 0-.322-.41c-.02-.19-.038-.383-.056-.58a7.292 7.292 0 0 0-.085-.61h2.755V27.3z" fill-rule="evenodd"/></svg>
<svg width="68" height="69" viewBox="-20 -20 68 69" id="i_header_login" y="1781"><title>Shape</title><path d="M13.945 23.51a10.41 10.41 0 0 1-2.2-.232 9.96 9.96 0 0 1-2.065-.685 10.144 10.144 0 0 1-1.846-1.096 9.954 9.954 0 0 1-1.572-1.466.58.58 0 0 1-.15-.287.623.623 0 0 1 .013-.343.565.565 0 0 1 .137-.287.898.898 0 0 1 .273-.206c.2-.09.415-.178.643-.26.228-.083.46-.17.697-.26.365-.147.725-.288 1.08-.426.356-.136.66-.277.916-.423.293-.147.548-.252.767-.316.218-.062.4-.113.547-.15l.218-.08.028-.07c.018-.046.045-.123.082-.233.073-.274.082-.466.027-.575-.056-.11-.174-.256-.356-.44l-.082-.08a1.912 1.912 0 0 1-.56-.837 4.832 4.832 0 0 1-.233-1.22 2.203 2.203 0 0 1-.33-.507 1.482 1.482 0 0 1-.136-.644c0-.274.032-.493.095-.658a1.1 1.1 0 0 1 .232-.383c-.11-.75-.137-1.247-.082-1.494.055-.248.146-.435.273-.563l.082-.11a1.65 1.65 0 0 1 .26-.383c.137-.165.333-.265.588-.302a1.88 1.88 0 0 0 .178-.137c.065-.054.124-.11.178-.164.2-.182.406-.35.616-.506.21-.155.442-.233.697-.233.11 0 .22-.004.33-.013.11-.01.2-.023.273-.04a.974.974 0 0 1 .273-.234.692.692 0 0 1 .355-.096c.165 0 .32.046.466.137.146.092.31.21.492.357l.192.165h.055c.072 0 .145-.01.218-.027.073-.02.12-.037.137-.055a.627.627 0 0 1 .314-.028c.1.02.196.055.288.11.783.475 1.248.86 1.394 1.15.146.293.22.494.22.604l.054.11c.054.11.123.27.205.48.082.21.05.45-.096.725l-.028.068a1.425 1.425 0 0 0-.055.178v.166c.127.09.24.228.342.41.1.184.15.44.15.768 0 .183-.037.366-.11.548a2.144 2.144 0 0 1-.3.52c-.038.494-.124.915-.26 1.26a2.456 2.456 0 0 1-.74 1.016 1.493 1.493 0 0 0-.122.11.426.426 0 0 0-.15.11.8.8 0 0 1-.07.08c0 .02-.003.08-.013.18-.01.1.023.28.096.534.02.073.033.132.042.178.01.046.023.078.04.096l.193.055c.145.037.328.088.546.15.22.065.484.17.794.317.256.146.56.287.916.424.356.14.716.28 1.08.426.165.055.333.114.506.178.174.064.333.133.48.206.11.037.2.1.272.192a.97.97 0 0 1 .164.3c.02.11.02.22 0 .33a.648.648 0 0 1-.136.3 10.002 10.002 0 0 1-3.46 2.66 10.345 10.345 0 0 1-4.36.96zm-5.88-3.67a8.385 8.385 0 0 0 2.695 1.644 8.908 8.908 0 0 0 3.185.576 9.015 9.015 0 0 0 3.282-.603 8.19 8.19 0 0 0 2.734-1.727 41.937 41.937 0 0 1-1.134-.452 15.633 15.633 0 0 1-.998-.452 4.495 4.495 0 0 0-.574-.247 2.542 2.542 0 0 0-.438-.11 2.81 2.81 0 0 1-.834-.37c-.227-.156-.396-.498-.505-1.028-.165-.658-.183-1.15-.055-1.48.127-.33.355-.62.683-.877l.192-.165c.073-.073.155-.21.246-.41.09-.202.146-.53.164-.987a.674.674 0 0 1 .19-.466l.11-.11a.883.883 0 0 1-.26-.26.58.58 0 0 1-.095-.315 4.353 4.353 0 0 1-.027-.48c0-.155-.01-.297-.027-.425v-.11c0-.036.004-.073.013-.11a.376.376 0 0 0 .015-.08 2.17 2.17 0 0 1 .068-.26c.028-.084.06-.16.096-.235a1.462 1.462 0 0 1-.247-.63 1.536 1.536 0 0 0-.273-.26 23.07 23.07 0 0 0-.41-.316 2.105 2.105 0 0 1-.465.055c-.165 0-.315-.017-.452-.054a1.23 1.23 0 0 1-.37-.164l-.327-.247c-.128.055-.292.1-.492.137-.2.037-.438.064-.71.083a.716.716 0 0 0-.22.15 5.94 5.94 0 0 0-.22.206 7.293 7.293 0 0 1-.463.385c-.145.11-.3.19-.464.246l-.07.138a.644.644 0 0 1-.122.165c0 .11.02.297.055.56.036.266.1.618.19 1.057a.666.666 0 0 1-.04.438.65.65 0 0 1-.315.33l.137.136c.073.073.127.15.164.233a.705.705 0 0 1 .054.288c.02.457.064.776.137.96.073.182.137.3.192.355l.08.083c.238.2.47.484.698.85.228.365.24.904.04 1.616-.145.51-.332.844-.56 1a2.41 2.41 0 0 1-.78.342c-.127.037-.272.082-.436.137a4.496 4.496 0 0 0-.575.246c-.29.146-.624.297-.998.452-.374.155-.753.306-1.135.452l-.33.11zm5.908 9.07c-1.914 0-3.724-.364-5.428-1.095a14.047 14.047 0 0 1-4.457-3 14.083 14.083 0 0 1-2.994-4.468A13.713 13.713 0 0 1 0 14.907c0-1.938.365-3.756 1.094-5.455.73-1.7 1.727-3.184 2.994-4.454a14.237 14.237 0 0 1 4.457-3.015 13.482 13.482 0 0 1 5.428-1.11c1.932 0 3.746.37 5.44 1.11a14.28 14.28 0 0 1 4.444 3.015 14.317 14.317 0 0 1 3.008 4.454c.74 1.7 1.108 3.517 1.108 5.454 0 1.918-.37 3.732-1.108 5.44a14.273 14.273 0 0 1-3.008 4.467 14.09 14.09 0 0 1-4.443 3c-1.695.732-3.51 1.097-5.44 1.097zm0-26.583c-1.714 0-3.336.33-4.868.987a12.488 12.488 0 0 0-3.992 2.7 12.842 12.842 0 0 0-2.68 4c-.656 1.526-.984 3.157-.984 4.893 0 1.717.327 3.343.984 4.878a12.634 12.634 0 0 0 2.68 4 12.6 12.6 0 0 0 3.99 2.687c1.533.658 3.155.987 4.87.987 1.73 0 3.357-.33 4.88-.988a12.81 12.81 0 0 0 3.992-2.686 12.52 12.52 0 0 0 2.693-4c.655-1.536.983-3.16.983-4.88 0-1.735-.328-3.366-.984-4.89a12.725 12.725 0 0 0-2.694-4.003 12.692 12.692 0 0 0-3.992-2.7c-1.523-.657-3.15-.986-4.88-.986z" fill-rule="evenodd"/></svg>
<svg width="65" height="53" viewBox="-20 -20 65 53" id="i_header_menu" y="1850"><title>Shape</title><path d="M0 5.193h25v2H0v-2zM0 .34h25v2H0v-2zm0 9.706h25v2H0v-2z" fill-rule="evenodd"/></svg>
<svg width="51" height="57" viewBox="-20 -20 51 57" id="i_header_pin" y="1903"><title>pin</title><path d="M10.324 2.955a5.455 5.455 0 0 0-.85-1.204A5.542 5.542 0 0 0 7.002.217 5.21 5.21 0 0 0 5.49 0c-.516 0-1.016.072-1.5.216a5.38 5.38 0 0 0-1.344.606c-.412.26-.79.57-1.13.93-.34.36-.626.76-.857 1.203a5.886 5.886 0 0 0-.488 1.27A5.603 5.603 0 0 0 0 5.628c0 .476.058.935.173 1.378.116.443.278.89.487 1.345.21.454.456.922.742 1.403.286.482.6.994.94 1.536.198.33.404.67.618 1.02a46.076 46.076 0 0 1 1.344 2.324c.23.426.462.877.693 1.353L5.492 17l.495-1.013c.23-.476.46-.927.692-1.353a46.077 46.077 0 0 1 1.343-2.324c.215-.35.426-.69.635-1.02.34-.543.654-1.055.94-1.537.286-.48.53-.95.734-1.402a9.25 9.25 0 0 0 .487-1.344c.12-.443.18-.902.18-1.378 0-.487-.06-.955-.18-1.403a6.21 6.21 0 0 0-.496-1.27zm-4.832-1.81a4.25 4.25 0 0 1 2.457.764c.35.243.664.53.94.862.274.332.494.703.66 1.113.11.265.19.542.246.83.055.288.083.586.083.896 0 .39-.054.773-.158 1.155a7.38 7.38 0 0 1-.445 1.187 14.8 14.8 0 0 1-.685 1.278c-.264.443-.555.92-.874 1.428-.34.554-.698 1.143-1.072 1.768a48.695 48.695 0 0 0-1.154 2.05 35.4 35.4 0 0 0-1.146-2.05c-.38-.625-.74-1.214-1.08-1.768-.308-.51-.594-.985-.858-1.428a14.8 14.8 0 0 1-.685-1.278 8.02 8.02 0 0 1-.453-1.187 4.15 4.15 0 0 1-.165-1.154c0-.31.03-.607.09-.895.06-.288.146-.565.256-.83.166-.41.383-.78.653-1.113.27-.332.58-.62.93-.863a4.31 4.31 0 0 1 2.46-.764zm0 7.57c.835 0 1.55-.3 2.144-.904A3 3 0 0 0 8.5 5.305a8.117 8.117 0 0 0-.057-.324 2.96 2.96 0 0 0-1.03-1.75 2.885 2.885 0 0 0-1.92-.706c-.727 0-1.365.236-1.914.706a3.056 3.056 0 0 0-1.04 1.75 3.112 3.112 0 0 0-.067.648c0 .853.295 1.58.883 2.184.588.603 1.3.905 2.136.905zm0-5.046c.462 0 .868.15 1.22.447.352.3.577.67.676 1.112a2.605 2.605 0 0 1 .033.38c0 .544-.19 1.006-.568 1.388a1.85 1.85 0 0 1-1.36.572c-.528 0-.98-.19-1.353-.572a1.91 1.91 0 0 1-.56-1.387 2.124 2.124 0 0 1 .032-.38c.088-.443.308-.814.66-1.113a1.83 1.83 0 0 1 1.22-.448z" fill-rule="evenodd"/></svg>
<svg width="68" height="61" viewBox="-20 -20 68 61" id="i_header_search" y="1960"><title>search</title><path d="M19.487 14.602c.31-.698.554-1.35.736-1.96.182-.607.312-1.192.39-1.752.076-.56.097-1.108.062-1.64a8.86 8.86 0 0 0-.263-1.62 9.913 9.913 0 0 0-1.397-3.088 10.22 10.22 0 0 0-2.28-2.41A10.568 10.568 0 0 0 13.78.565 10.365 10.365 0 0 0 9.094.082c-.428.055-.85.13-1.272.226C7.15.472 6.51.698 5.9.984 5.29 1.27 4.716 1.61 4.177 2a10.03 10.03 0 0 0-2.7 2.922c-.35.588-.642 1.193-.874 1.815a9.558 9.558 0 0 0-.588 3.876c.035.663.136 1.316.305 1.958a9.76 9.76 0 0 0 1.397 3.098 10.49 10.49 0 0 0 2.28 2.41 10.42 10.42 0 0 0 2.954 1.58c1.087.375 2.218.563 3.395.563.435 0 .866-.027 1.293-.08a9.393 9.393 0 0 0 1.25-.247c.56-.137 1.104-.315 1.63-.534a9.485 9.485 0 0 0 1.502-.79c.477-.308.925-.65 1.346-1.026.42-.376.805-.782 1.156-1.22L26.97 21 28 19.298l-8.513-4.696zm-.42-4.492c0 1.162-.228 2.26-.683 3.292a8.584 8.584 0 0 1-1.87 2.707 8.854 8.854 0 0 1-2.765 1.824 8.6 8.6 0 0 1-3.385.667 8.676 8.676 0 0 1-3.394-.666 8.696 8.696 0 0 1-2.763-1.825 8.82 8.82 0 0 1-1.87-2.708 7.96 7.96 0 0 1-.694-3.292c0-1.175.23-2.28.693-3.312a8.693 8.693 0 0 1 1.87-2.696 8.93 8.93 0 0 1 2.765-1.826 8.562 8.562 0 0 1 3.395-.676c1.206 0 2.334.225 3.384.676a9.1 9.1 0 0 1 2.763 1.826 8.464 8.464 0 0 1 1.87 2.696 8.113 8.113 0 0 1 .684 3.312z" fill="#FFF" fill-rule="evenodd"/></svg>
<svg width="59" height="63" viewBox="-20 -20 59 63" id="i_item_size" y="2021"><title>Combined Shape</title><path d="M14.077 22.987a2.866 2.866 0 0 1-.394-.05l-.39-.216c-1.926-.89-1.56-2.186-1.097-3.84.11-.385.22-.785.296-1.19.38-2.603.518-5.383-.61-6.93-.897-1.232-3.045-1.21-3.17-2.86-.06-.81.144-1.467.61-1.953 1.092-1.138 3.4-1.175 4.676-1.095 1.062.065 1.155.188 1.632.317 4.977 1.327 2.047 3.712 1.622 9.848-.19 2.762 1.9 8.285-3.175 7.97zM8.537 0c-.16 0-.317.028-.464.082-.475.17-.824.59-.984 1.174-.146.536-.113 1.157.09 1.75.368 1.062 1.18 1.776 2.024 1.776.16 0 .317-.026.466-.08.46-.168.804-.57.968-1.134.162-.546.135-1.18-.076-1.79C10.195.715 9.38 0 8.538 0zm3.365.807c-.574.137-.887.843-.714 1.61.145.657.64 1.15 1.146 1.15a.79.79 0 0 0 .178-.02.91.91 0 0 0 .562-.424c.194-.317.25-.75.154-1.186-.17-.746-.722-1.25-1.326-1.13zm2.65.33c-.504.002-.91.495-.95 1.146-.02.31.052.612.2.847.154.247.383.398.653.414h.022c.482 0 .89-.505.928-1.15a1.43 1.43 0 0 0-.2-.843.82.82 0 0 0-.652-.412zm2.838 1.446c-.105-.272-.304-.466-.547-.53-.502-.133-1.01.288-1.17.926-.093.36-.056.73.102 1.004a.8.8 0 0 0 .48.39.685.685 0 0 0 .177.022c.43 0 .857-.408.995-.95a1.44 1.44 0 0 0-.037-.863zM18.93 3.9c-.086-.224-.25-.383-.44-.437l-.164-.02c-.356 0-.7.324-.81.77-.065.245-.055.496.027.703a.7.7 0 0 0 .465.442l.136.017c.36 0 .704-.325.816-.773a1.162 1.162 0 0 0-.03-.703zM2 0h1v23H2V0zM0 0h2v1H0V0zm3 0h2v1H3V0zM0 22h2v1H0v-1zm3 0h2v1H3v-1z" fill="#666" fill-rule="evenodd"/></svg>
<svg width="53" height="52" viewBox="-20 -20 53 52" id="i_item_tablesize" y="2084"><title>Shape</title><path d="M0 0h1.788v12H0V0zm3.737 4.515h1.788V12H3.737V4.515zm3.738-2.028h1.788V12H7.475V2.487zm3.76 3.573H13V12h-1.764V6.06z" fill="#E21836" fill-rule="evenodd"/></svg>
<svg width="52" height="52" viewBox="-20 -20 52 52" id="i_plus" y="2136"><title>Shape</title><path d="M12 6.502H6.502V12H5.498V6.502H0V5.498h5.498V0h1.004v5.498H12v1.004z" fill-rule="evenodd"/></svg>
<svg width="64" height="64" viewBox="-20 -20 64 64" id="i_soc_fb" y="2188"><title>fb</title><path d="M12 24c6.627 0 12-5.373 12-12S18.627 0 12 0 0 5.373 0 12s5.373 12 12 12zm2.08-16.597l-.626.09c-.417.058-.625.375-.625.95v1.594h2.324l-.3 2.38H12.83v6.206h-2.45v-6.205h-2.1v-2.38h2.1V8.213l.324-1.57c.216-1.047 1.083-1.554 2.6-1.52.433 0 .812.004 1.137.013.326.008.605.013.84.013V7.4h-1.2z" fill="#D8D8D8" fill-rule="evenodd"/></svg>
<svg width="64" height="64" viewBox="-20 -20 64 64" id="i_soc_go" y="2252"><title>g+</title><path d="M12 0C5.373 0 0 5.372 0 12s5.373 12 12 12 12-5.372 12-12S18.627 0 12 0zm2.573 12.555a5.292 5.292 0 0 1-5.287 5.286A5.292 5.292 0 0 1 4 12.556a5.292 5.292 0 0 1 5.286-5.287c1.176 0 2.29.38 3.222 1.095L11.28 9.96a3.245 3.245 0 0 0-1.994-.678 3.276 3.276 0 0 0-3.272 3.273 3.276 3.276 0 0 0 3.272 3.272A3.278 3.278 0 0 0 12.4 13.56H9.287V11.55h5.287v1.007zm5.59.767h-1.515v1.515h-1.316v-1.515h-1.514v-1.316h1.514V10.49h1.316v1.515h1.515v1.316z" fill="#D8D8D8" fill-rule="evenodd"/></svg>
<svg width="64" height="64" viewBox="-20 -20 64 64" id="i_soc_ma" y="2316"><title>ma</title><g fill="#D8D8D8" fill-rule="evenodd"><path d="M11.703 9.043h-.06c-1.816 0-2.823 1.43-2.823 3.05 0 1.818 1.22 2.966 2.817 2.966 1.78 0 2.953-1.306 3.038-2.85l-.005-.355c-.09-1.756-1.393-2.812-2.967-2.812"/><path d="M17.806 17.014c-1.202.94-2.988.024-2.976-1.345l-.013-.45a4.466 4.466 0 0 1-3.165 1.316c-2.397 0-4.507-2.11-4.507-4.507 0-2.423 2.11-4.557 4.507-4.557 1.214 0 2.355.536 3.193 1.376v.002c0-.403.27-.707.648-.707h.095c.59 0 .71.557.71.734l.004 6.27c-.042.41.423.62.68.358 1.008-1.035 2.212-5.32-.625-7.802-2.644-2.314-6.192-1.932-8.078-.632-2.007 1.384-3.29 4.445-2.044 7.32 1.36 3.137 5.248 4.072 7.56 3.14 1.17-.473 1.71 1.11.495 1.626-1.836.783-6.948.704-9.336-3.433C3.34 12.934 3.427 8.02 7.706 5.473c3.274-1.948 7.59-1.408 10.192 1.31 2.72 2.84 2.562 8.16-.092 10.23M11.928 0C5.34 0 0 5.34 0 11.928c0 6.587 5.34 11.928 11.928 11.928 6.588 0 11.928-5.34 11.928-11.928C23.856 5.34 18.516 0 11.928 0"/></g></svg>
<svg width="64" height="64" viewBox="-20 -20 64 64" id="i_soc_ok" y="2380"><title>ok</title><g fill="#D8D8D8" fill-rule="evenodd"><path d="M11.98 10.265a1.835 1.835 0 0 0 1.835-1.852A1.84 1.84 0 0 0 11.97 6.57a1.842 1.842 0 0 0-1.85 1.867 1.84 1.84 0 0 0 1.86 1.83z"/><path d="M11.97 0C5.358 0 0 5.36 0 11.97s5.36 11.97 11.97 11.97 11.97-5.36 11.97-11.97S18.58 0 11.97 0zm.015 4.64c2.088.006 3.764 1.714 3.753 3.825-.01 2.063-1.714 3.735-3.798 3.728-2.064-.007-3.756-1.718-3.744-3.785a3.782 3.782 0 0 1 3.79-3.768zm4.23 9.036a4.54 4.54 0 0 1-1.635 1.057c-.584.226-1.223.34-1.856.416.095.103.14.154.2.213.86.864 1.722 1.723 2.578 2.59.292.295.353.66.192 1.003-.175.375-.568.622-.954.595-.244-.015-.435-.137-.604-.307-.65-.653-1.31-1.293-1.944-1.958-.186-.193-.274-.157-.438.01a129.39 129.39 0 0 1-1.98 1.99c-.3.297-.657.35-1.004.18-.37-.177-.604-.554-.586-.934.012-.254.138-.45.314-.626.85-.848 1.7-1.7 2.547-2.55.056-.057.108-.117.19-.204-1.157-.12-2.2-.406-3.093-1.104-.11-.087-.225-.17-.326-.268-.39-.375-.43-.806-.12-1.248.263-.38.707-.48 1.17-.263.09.042.174.095.255.15 1.665 1.145 3.95 1.176 5.622.052.166-.127.343-.23.548-.283a.86.86 0 0 1 .984.392c.245.4.242.787-.06 1.096z"/></g></svg>
<svg width="64" height="64" viewBox="-20 -20 64 64" id="i_soc_tw" y="2444"><title>tw</title><path d="M12 24c6.627 0 12-5.373 12-12S18.627 0 12 0 0 5.373 0 12s5.373 12 12 12zm7.51-15.698a5.994 5.994 0 0 1-.626.767c-.23.237-.48.46-.753.663v.357c0 .92-.17 1.847-.51 2.784a7.944 7.944 0 0 1-1.507 2.54c-.664.76-1.49 1.376-2.477 1.853-.987.476-2.12.715-3.397.715-.784 0-1.533-.11-2.248-.332A8.165 8.165 0 0 1 6 16.73c.102.017.21.03.32.04a5.393 5.393 0 0 0 2.196-.307 5.716 5.716 0 0 0 1.596-.882 2.612 2.612 0 0 1-1.635-.55 2.715 2.715 0 0 1-.97-1.364 2.642 2.642 0 0 0 1.25-.05 2.803 2.803 0 0 1-1.582-.96 2.66 2.66 0 0 1-.64-1.774v-.026c.19.103.39.183.6.243.214.06.43.097.653.114a2.8 2.8 0 0 1-.894-.996 2.744 2.744 0 0 1-.332-1.328c0-.256.034-.498.102-.728.068-.23.162-.447.28-.65a7.99 7.99 0 0 0 2.504 2.03 7.54 7.54 0 0 0 3.218.855 1.31 1.31 0 0 1-.064-.307 4.013 4.013 0 0 1-.013-.332c0-.766.267-1.417.803-1.954A2.66 2.66 0 0 1 15.347 7c.41 0 .788.077 1.137.23.35.153.65.366.906.638a6.9 6.9 0 0 0 .907-.268c.298-.11.583-.242.855-.396a2.756 2.756 0 0 1-1.226 1.532c.273-.033.545-.09.818-.165.272-.076.528-.165.766-.268z" fill="#E21836" fill-rule="evenodd"/></svg>
<svg width="64" height="64" viewBox="-20 -20 64 64" id="i_soc_vk" y="2508"><path d="M12 24c6.627 0 12-5.373 12-12S18.627 0 12 0 0 5.373 0 12s5.373 12 12 12zm1.055-10.695c-.337-.196-.805-.196-1.185-.196h-1.248v2.57h1.146c.424 0 .965.03 1.33-.225.336-.226.526-.67.526-1.092 0-.393-.233-.862-.57-1.058zm-.47-2.197c.277-.212.423-.59.423-.936 0-.378-.176-.74-.497-.936-.335-.196-.95-.15-1.344-.15h-.544v2.263h.72c.41 0 .89.03 1.242-.242zm-.092 6.49h-4.29V7.244h4.687c1.358 0 2.61.864 2.61 2.388 0 1.178-.657 1.984-1.495 2.234v.03c1.243.257 2.13.932 2.13 2.56 0 1.508-1.026 3.142-3.642 3.142z" fill="#D8D8D8" fill-rule="evenodd"/></svg>
<svg width="58" height="55" viewBox="-20 -20 58 55" id="i_tw" y="2572"><title>tw</title><path d="M18 1.735c-.25.363-.527.704-.834 1.02-.306.32-.64.614-1.003.886v.477c0 1.225-.227 2.46-.68 3.71a10.584 10.584 0 0 1-2.01 3.385c-.883 1.01-1.983 1.83-3.3 2.467-1.315.634-2.823.95-4.525.95-1.043 0-2.04-.146-2.994-.44A10.878 10.878 0 0 1 0 12.963c.136.023.278.04.425.05a7.186 7.186 0 0 0 2.926-.407 7.616 7.616 0 0 0 2.128-1.174A3.48 3.48 0 0 1 3.3 10.7c-.635-.486-1.066-1.093-1.292-1.82a3.52 3.52 0 0 0 1.667-.067 3.735 3.735 0 0 1-2.11-1.276c-.567-.67-.85-1.458-.85-2.365v-.034c.25.136.516.244.8.323.283.08.572.13.867.154A3.73 3.73 0 0 1 1.19 4.287a3.656 3.656 0 0 1-.442-1.77c0-.34.045-.663.136-.97.09-.305.215-.594.374-.866a10.647 10.647 0 0 0 3.335 2.706 10.045 10.045 0 0 0 4.287 1.14 1.747 1.747 0 0 1-.085-.41 5.347 5.347 0 0 1-.017-.44c0-1.02.357-1.89 1.072-2.604C10.565.357 11.433 0 12.454 0c.544 0 1.05.102 1.514.306.465.204.868.488 1.208.85.408-.09.81-.21 1.208-.356a8.01 8.01 0 0 0 1.14-.528 3.672 3.672 0 0 1-1.633 2.042c.363-.046.726-.12 1.09-.22a8.282 8.282 0 0 0 1.02-.36z" fill="#FFF" fill-rule="evenodd"/></svg>
<svg width="51" height="55" viewBox="-20 -20 51 55" id="i_vk" y="2627"><path d="M6.728 8.404c-.467-.272-1.115-.272-1.643-.272h-1.73V11.7h1.588c.588 0 1.338.042 1.845-.314.466-.313.73-.928.73-1.514 0-.544-.324-1.195-.79-1.467zm-.653-3.046c.385-.294.587-.816.587-1.298 0-.523-.243-1.026-.688-1.297-.466-.272-1.318-.21-1.866-.21h-.754v3.14h.998c.567 0 1.237.04 1.723-.335zm-.126 9H0V0h6.5c1.882 0 3.62 1.198 3.62 3.312 0 1.632-.912 2.75-2.074 3.097v.04C9.77 6.81 11 7.745 11 10c0 2.09-1.423 4.357-5.05 4.357z" fill="#FFF" fill-rule="evenodd"/></svg>
<svg width="86" height="63" viewBox="-20 -20 86 63" id="logo_nb" y="2682"><title>logo</title><path d="M23.32 7.803l2.14-3.696 7.21-.476.26-.453-6.694-.454L27.812 0h12.395c.95 0 1.825.094 2.623.28.8.188 1.462.49 1.987.91.526.417.882.968 1.07 1.652.186.685.143 1.53-.13 2.54-.087.303-.256.702-.508 1.2-.253.497-.63 1.015-1.135 1.556-.504.54-1.144 1.062-1.922 1.567-.777.504-1.734.915-2.87 1.232.488.057 1.154.385 1.996.983.84.598 1.16 1.59.96 2.972-.187 1.225-.68 2.288-1.48 3.188a10.8 10.8 0 0 1-2.785 2.248 13.6 13.6 0 0 1-3.304 1.34c-1.143.296-2.154.443-3.032.443l-14.64.023-.735-2.853 7.687-.54.26-.433-8.336-.52-.885-3.35 11.832-.69.26-.454-21.27-1.34 1.015-1.773 22.89-1.49.258-.432-6.694-.454zm9.567.756l2.116-.022c.705 0 1.385-.163 2.04-.487a2.705 2.705 0 0 0 1.372-1.48c.244-.604.24-1.13-.01-1.577-.253-.447-.602-.67-1.048-.67h-2.03l-2.44 4.236zm-2.42 4.214l-2.547 4.41h2.42c.56 0 1.25-.16 2.072-.476.82-.317 1.382-.88 1.684-1.686.288-.735.248-1.293-.12-1.675-.366-.382-.73-.573-1.09-.573H30.47zm-18.483 6.83l-1.468 2.507L0 22.134l1.015-1.772 10.97-.756zM12.74 0h8.443l.648 2.4-10.105-.628L12.74 0zm9.566 4.3l.928 3.503-14.444-.95 1.014-1.774 12.503-.78zM14.943 14.44l-1.836 3.178-10.17-.562 1.015-1.773 10.99-.842z" fill="#E21836" fill-rule="evenodd"/></svg>
<svg width="71" height="75" viewBox="-20 -20 71 75" id="pin-black" y="2745"><title>geo copy 2</title><g fill="none" fill-rule="evenodd"><path d="M0 0h31v23H0V0zm0 23h7L0 35V23z" fill="#000"/><path d="M15.66 9.9l1.07-1.847 3.605-.237.13-.227-3.347-.228L17.906 6h6.197c.476 0 .913.047 1.312.14.4.094.73.245.994.454.26.21.44.485.533.827.094.343.072.767-.065 1.27a3.622 3.622 0 0 1-.254.6 3.467 3.467 0 0 1-.566.78c-.252.27-.573.53-.96.782-.39.253-.87.458-1.437.616.246.03.578.193 1 .492.42.3.58.794.48 1.486a3.042 3.042 0 0 1-.74 1.594 5.4 5.4 0 0 1-1.392 1.124 6.8 6.8 0 0 1-1.652.67c-.573.148-1.078.222-1.517.222l-7.32.01-.368-1.426 3.843-.27.13-.216-4.168-.26-.442-1.675 5.916-.347.13-.227-10.634-.67.507-.886 11.445-.746.13-.216L15.66 9.9zm4.783.38l1.058-.01c.354 0 .694-.082 1.02-.244.33-.162.558-.41.687-.74.123-.303.12-.566-.005-.79-.126-.223-.3-.335-.524-.335h-1.015l-1.22 2.12zm-1.21 2.107l-1.273 2.205h1.21c.28 0 .626-.08 1.036-.238.41-.16.69-.44.842-.843.144-.367.124-.646-.06-.837-.183-.19-.365-.286-.545-.286h-1.21zm-9.24 3.415l-.735 1.254-5.258.01.507-.886 5.485-.378zM10.37 6h4.222l.323 1.2-5.052-.314L10.37 6zm4.783 2.15l.464 1.75-7.223-.474.508-.886 6.25-.39zm-3.682 5.07l-.916 1.588-5.086-.28.508-.887 5.495-.42z" fill="#FFF"/></g></svg>
<svg width="71" height="75" viewBox="-20 -20 71 75" id="pin-red" y="2820"><title>geo</title><g fill="none" fill-rule="evenodd"><path d="M0 0h31v23H0V0zm0 23h7L0 35V23z" fill="#E21836"/><path d="M15.66 9.9l1.07-1.847 3.605-.237.13-.227-3.347-.228L17.906 6h6.197c.476 0 .913.047 1.312.14.4.094.73.245.994.454.26.21.44.485.533.827.094.343.072.767-.065 1.27a3.622 3.622 0 0 1-.254.6 3.467 3.467 0 0 1-.566.78c-.252.27-.573.53-.96.782-.39.253-.87.458-1.437.616.246.03.578.193 1 .492.42.3.58.794.48 1.486a3.042 3.042 0 0 1-.74 1.594 5.4 5.4 0 0 1-1.392 1.124 6.8 6.8 0 0 1-1.652.67c-.573.148-1.078.222-1.517.222l-7.32.01-.368-1.426 3.843-.27.13-.216-4.168-.26-.442-1.675 5.916-.347.13-.227-10.634-.67.507-.886 11.445-.746.13-.216L15.66 9.9zm4.783.38l1.058-.01c.354 0 .694-.082 1.02-.244.33-.162.558-.41.687-.74.123-.303.12-.566-.005-.79-.126-.223-.3-.335-.524-.335h-1.015l-1.22 2.12zm-1.21 2.107l-1.273 2.205h1.21c.28 0 .626-.08 1.036-.238.41-.16.69-.44.842-.843.144-.367.124-.646-.06-.837-.183-.19-.365-.286-.545-.286h-1.21zm-9.24 3.415l-.735 1.254-5.258.01.507-.886 5.485-.378zM10.37 6h4.222l.323 1.2-5.052-.314L10.37 6zm4.783 2.15l.464 1.75-7.223-.474.508-.886 6.25-.39zm-3.682 5.07l-.916 1.588-5.086-.28.508-.887 5.495-.42z" fill="#FFF"/></g></svg>
<svg width="45" height="48" viewBox="-20 -20 45 48" id="s-1" y="2895"><title>right-corner</title><path d="M5 3.875L0 7.553V.197l5 3.678zM.733 6.102l3.03-2.227-3.03-2.227v4.454z" fill-rule="evenodd"/></svg>
<svg width="47" height="50" viewBox="-20 -20 47 50" id="s-2" y="2943"><title>Shape</title><path d="M0 9.96l6.797-4.84L0 .283V9.96z" fill="#E21836" fill-rule="evenodd"/></svg>
<svg width="46" height="49" viewBox="-20 -20 46 49" id="s-3" y="2993"><title>Shape Copy</title><path d="M0 4.5L6 0v9L0 4.5zm5.117-2.728L1.487 4.5l3.63 2.718V1.772z" fill-rule="evenodd"/></svg>
<svg width="58" height="52" viewBox="-20 -20 58 52" id="s-4" y="3042"><title>right-corner</title><path d="M9 0l9 12H0L9 0zm5.45 10.24L9 2.967 3.55 10.24h10.9z" fill="#FFF" fill-rule="evenodd"/></svg>
</svg>